<?xml version="1.0" standalone="no"?>
<!DOCTYPE svg PUBLIC "-//W3C//DTD SVG 1.1//EN" "http://www.w3.org/Graphics/SVG/1.1/DTD/svg11.dtd" >
<svg xmlns="http://www.w3.org/2000/svg" xmlns:xlink="http://www.w3.org/1999/xlink" version="1.1">
<metadata></metadata>
<defs>
<font id="freyabold" horiz-adv-x="752" >
<font-face units-per-em="1000" ascent="730" descent="-270" />
<missing-glyph horiz-adv-x="300" />
<glyph unicode="ae" horiz-adv-x="785" d="M745 176h5q-14 -88 -66 -136t-129 -48q-96 0 -158.5 40.5t-85.5 111.5q0 -81 -45 -117.5t-134 -36.5q-43 0 -77.5 29t-34.5 78q0 46 35 77.5t130 69.5l113 45v100q0 28 -7.5 42t-31.5 14q-38 0 -77 -23.5t-39 -58.5q0 -40 30 -83l-114 -46q-18 58 -4 101t54 71t90 42 t104 14q66 0 95 -35q59 38 139 38q89 0 149 -67t63 -176h-320q2 -70 41 -118.5t118 -48.5q123 0 157 121zM536 451q-37 0 -62 -32.5t-34.5 -78t-10.5 -104.5h200q-1 48 -5 83t-13.5 67t-28.5 48.5t-46 16.5zM298 159v117q-74 -31 -107 -65.5t-33 -82.5q0 -44 15.5 -70.5 t40.5 -26.5q84 0 84 128z" />
<glyph unicode="oe" horiz-adv-x="902" d="M862 176h5q-14 -88 -66 -136t-129 -48q-130 0 -199 75q-65 -75 -192 -75q-122 0 -184 66.5t-62 168.5q0 103 62 170.5t184 67.5q125 0 190 -75q65 75 183 75q89 0 149 -67t63 -176h-320q2 -70 41 -118.5t118 -48.5q123 0 157 121zM320 8q53 9 69 59.5t-3 176.5 q-22 121 -56.5 167.5t-87.5 37.5t-69 -61t4 -178q21 -120 55.5 -165.5t87.5 -36.5zM653 451q-37 0 -62 -32.5t-34.5 -78t-10.5 -104.5h200q-1 48 -5 83t-13.5 67t-28.5 48.5t-46 16.5z" />
<glyph unicode="&#xfb00;" horiz-adv-x="699" d="M706 519l-104 42q30 43 30 83q0 38 -16 55t-50 17q-46 0 -66.5 -41t-12.5 -85q5 -30 25 -63.5t37 -52.5l17 -19h80v-14h-79v-351q0 -34 16.5 -54.5t32.5 -24.5l17 -4v-7h-257v7q3 0 7.5 1t15.5 6.5t20 13.5t16 24.5t7 37.5v351h-58v14h59l-6 6t-14 17.5t-15 28 t-10.5 38.5t1.5 49q8 50 38 85q-13 37 -88 37q-29 0 -50 -7.5t-34 -25.5t-21 -36.5t-12 -53.5t-5 -62t-1 -76h79v-14h-79v-351q0 -34 16.5 -54.5t33.5 -24.5l16 -4v-7h-257v7q3 0 7.5 1t15.5 6.5t20 13.5t16 24.5t7 37.5v351h-58v14h59q0 125 69 200t178 75q70 0 118 -26 q40 26 99 26q29 0 59.5 -11t58 -36t34 -65.5t-11.5 -98.5z" />
<glyph unicode="&#xfb01;" horiz-adv-x="667" d="M566 90q0 -34 16.5 -54.5t33.5 -24.5l16 -4v-7h-257v7q3 0 7.5 1t15.5 6.5t20 13.5t16 24.5t7 37.5v264q0 36 -16.5 57.5t-32.5 25.5l-17 4h-149v-351q0 -34 16.5 -54.5t33.5 -24.5l16 -4v-7h-257v7q3 0 7.5 1t15.5 6.5t20 13.5t16 24.5t7 37.5v351h-58v14h59 q0 125 69 200t178 75q98 0 151 -52t15 -159l-104 42q30 43 30 83t-18.5 56t-73.5 16q-29 0 -50 -7.5t-34 -25.5t-21 -36.5t-12 -53.5t-5 -62t-1 -76h239h94h7v-365z" />
<glyph unicode="&#xfb02;" horiz-adv-x="667" d="M566 90q0 -34 16.5 -54.5t33.5 -24.5l16 -4v-7h-257v7q3 0 7.5 1t15.5 6.5t20 13.5t16 24.5t7 37.5v448l-58 23q30 43 30 83q0 39 -18 55.5t-67 16.5q-24 0 -41.5 -7.5t-28.5 -25.5t-17.5 -37t-9.5 -53t-4 -62t-1 -76h79v-14h-79v-351q0 -34 16.5 -54.5t33.5 -24.5l16 -4 v-7h-257v7q3 0 7.5 1t15.5 6.5t20 13.5t16 24.5t7 37.5v351h-58v14h59q0 123 65.5 199t160.5 76q93 0 141 -48q47 19 88 48h9v-640z" />
<glyph unicode="&#xfb03;" horiz-adv-x="1010" d="M909 90q0 -34 16.5 -54.5t32.5 -24.5l17 -4v-7h-257v7q3 0 7.5 1t15.5 6.5t20 13.5t16 24.5t7 37.5v264q0 36 -16.5 57.5t-33.5 25.5l-16 4h-149v-351q0 -34 16.5 -54.5t32.5 -24.5l17 -4v-7h-257v7q3 0 7.5 1t15.5 6.5t20 13.5t16 24.5t7 37.5v351h-58v14h59q0 40 8 78 l-70 28q30 43 30 83q0 39 -18 55.5t-67 16.5q-24 0 -41.5 -7.5t-28.5 -25.5t-17.5 -37t-9.5 -53t-4 -62t-1 -76h79v-14h-79v-351q0 -34 16.5 -54.5t33.5 -24.5l16 -4v-7h-257v7q3 0 7.5 1t15.5 6.5t20 13.5t16 24.5t7 37.5v351h-58v14h59q0 123 65.5 199t160.5 76 q60 0 107.5 -24t61.5 -73q69 97 195 97q98 0 151 -52t15 -159l-104 42q30 43 30 83t-18.5 56t-73.5 16q-29 0 -50 -7.5t-34 -25.5t-21 -36.5t-12 -53.5t-5 -62t-1 -76h239h94h7v-365z" />
<glyph unicode="&#xfb04;" horiz-adv-x="1010" d="M909 90q0 -34 16.5 -54.5t32.5 -24.5l17 -4v-7h-257v7q3 0 7.5 1t15.5 6.5t20 13.5t16 24.5t7 37.5v448l-58 23q30 43 30 83q0 39 -18 55.5t-67 16.5q-24 0 -41.5 -7.5t-28.5 -25.5t-17.5 -36.5t-9.5 -53.5t-4 -62t-1 -76h79v-14h-79v-351q0 -34 16.5 -54.5t32.5 -24.5 l17 -4v-7h-257v7q3 0 7.5 1t15.5 6.5t20 13.5t16 24.5t7 37.5v351h-58v14h59q0 43 9 81l-62 25q30 45 30 83q0 36 -18 54t-64 18q-68 0 -90.5 -63t-23.5 -198h89v-14h-89v-351q0 -34 16.5 -54.5t33.5 -24.5l16 -4v-7h-257v7q3 0 7.5 1t15.5 6.5t20 13.5t16 24.5t7 37.5v351 h-58v14h59q0 122 71 198.5t167 76.5q57 0 101.5 -21t61.5 -65q64 86 168 86q93 0 142 -50q49 23 87 50h9v-640z" />
<glyph unicode="at" horiz-adv-x="918" d="M878 107h5q-23 -117 -136 -117q-64 0 -100.5 35.5t-36.5 94.5l1 321h-82v14h82v57l106 88q0 43 -56.5 78t-151.5 35q-94 0 -153.5 -35.5t-60.5 -86.5q0 -21 8.5 -43.5t27 -46.5t27 -33t27.5 -29q38 -29 38 -105v-210q0 -24 7 -41.5t16.5 -25t19 -12t16.5 -4.5h7v-7 l-164 -44l-20 60q-7 10 -7 22l1 2q1 2 2 4.5l1 2.5q-46 -91 -170 -91q-43 0 -77.5 29t-34.5 78q0 46 35 77.5t130 69.5l113 45v100q0 28 -7.5 42t-31.5 14q-38 0 -77 -23.5t-39 -58.5q0 -40 30 -83l-114 -46q-18 58 -4 101t54 71t90 42t104 14q24 0 40 -4q-66 68 -66 132 q0 62 66.5 101.5t165.5 39.5q91 0 158.5 -35t67.5 -96v-145h130v-14h-130v-315q0 -86 64 -86q55 0 79 67zM298 159v117q-74 -31 -107 -65.5t-33 -82.5q0 -44 15.5 -70.5t40.5 -26.5q84 0 84 128z" />
<glyph unicode="Th" horiz-adv-x="1159" d="M1058 90q0 -34 16.5 -54.5t33.5 -24.5l16 -4v-7h-258v7q3 0 7.5 1t15.5 6.5t20 13.5t16 24.5t7 37.5v252q0 72 -64 72q-58 0 -112 -69v-255q0 -34 16.5 -54.5t33.5 -24.5l16 -4v-7h-257v7q3 0 7.5 1t15.5 6.5t20 13.5t16 24.5t7 37.5v489q0 34 -16.5 54.5t-32.5 24.5 l-17 4h-157v-572q0 -34 16.5 -54.5t33.5 -24.5l16 -4v-7h-282v7q3 0 7.5 1t15.5 6.5t20 13.5t16 24.5t7 37.5v572h-40q-38 0 -69.5 -19t-52 -49t-33.5 -60.5t-20 -61.5h-8l24 218h8q14 -10 98 -10h38h362q13 0 33 1.5t68.5 14t80.5 34.5h9v-365q77 97 187 97q50 0 82.5 -29 t32.5 -85v-258z" />
<glyph unicode="ct" horiz-adv-x="889" d="M849 107h5q-23 -117 -136 -117q-64 0 -100.5 35.5t-36.5 94.5l1 321h-82v14h82v57l106 88q0 43 -57 78t-152 35q-94 0 -153.5 -35.5t-60.5 -86.5q-1 -85 108 -143q60 -25 88.5 -80t0.5 -134l-114 46q30 43 30 83q0 38 -24.5 63t-62.5 25q-44 0 -74 -36t-40.5 -82 t-9.5 -97q1 -83 43.5 -132t106.5 -49q50 0 94.5 22.5t63.5 75.5h5q-15 -77 -64.5 -120t-128.5 -43q-115 0 -183.5 63.5t-68.5 164.5q0 106 70.5 176.5t185.5 70.5q8 0 26 -2q-70 40 -70 127q0 62 66.5 101.5t165.5 39.5q91 0 159 -35t68 -96v-145h130v-14h-130v-315 q0 -86 64 -86q55 0 79 67z" />
<glyph unicode="fb" horiz-adv-x="961" d="M724 465q82 0 142 -63t60 -156q0 -107 -82.5 -181.5t-186.5 -74.5q-84 0 -123 89l-85 -79h-7v537l-59 24q30 43 30 83q0 39 -18 55.5t-67 16.5q-24 0 -41.5 -7.5t-28.5 -25.5t-17.5 -36.5t-9.5 -53.5t-4 -62t-1 -76h79v-14h-79v-351q0 -34 16.5 -54.5t33.5 -24.5l16 -4 v-7h-257v7q3 0 7.5 1t15.5 6.5t20 13.5t16 24.5t7 37.5v351h-58v14h59q0 123 65.5 199t160.5 76q93 0 141 -49q3 2 17.5 8.5t23.5 11.5q19 12 32 18q2 2 8 5.5t8 5.5h9v-366q30 50 67 75.5t90 25.5zM657 4q66 0 103.5 55t37.5 146t-33.5 146t-96.5 55t-101 -63v-231 q0 -53 24 -80.5t66 -27.5z" />
<glyph unicode="fh" horiz-adv-x="971" d="M870 90q0 -34 16.5 -54.5t33.5 -24.5l16 -4v-7h-258v7q3 0 7.5 1t15.5 6.5t20 13.5t16 24.5t7 37.5v252q0 72 -64 72q-58 0 -112 -69v-255q0 -34 16.5 -54.5t33.5 -24.5l16 -4v-7h-257v7q3 0 7.5 1t15.5 6.5t20 13.5t16 24.5t7 37.5v447l-60 24q30 43 30 83 q0 39 -18 55.5t-67 16.5q-24 0 -41.5 -7.5t-28.5 -25.5t-17.5 -37t-9.5 -53t-4 -62t-1 -76h79v-14h-79v-351q0 -34 16.5 -54.5t33.5 -24.5l16 -4v-7h-257v7q3 0 7.5 1t15.5 6.5t20 13.5t16 24.5t7 37.5v351h-58v14h59q0 123 65.5 199t160.5 76q93 0 141 -49q46 18 90 49h9 v-365q77 97 187 97q50 0 82.5 -29t32.5 -85v-258z" />
<glyph unicode="fj" horiz-adv-x="613" d="M568 455v-455q0 -113 -36.5 -162.5t-123.5 -49.5q-32 0 -62.5 9.5t-56.5 30t-33 54t8 81.5l94 -38q-20 -21 -20 -53q0 -31 19.5 -50.5t50.5 -19.5q46 0 64 34.5t7.5 74.5t-36.5 58v396q0 21 -7 37t-15.5 23t-20 11t-16 4.5t-7.5 0.5h-151v-351q0 -34 16.5 -54.5 t33.5 -24.5l16 -4v-7h-257v7q3 0 7.5 1t15.5 6.5t20 13.5t16 24.5t7 37.5v351h-58v14h59q0 125 69 200t178 75q98 0 151 -52t15 -159l-104 42q30 43 30 83t-18.5 56t-73.5 16q-29 0 -50 -7.5t-34 -25.5t-21 -36.5t-12 -53.5t-5 -62t-1 -76h342z" />
<glyph unicode="fk" horiz-adv-x="959" d="M850 74q19 -28 39.5 -44.5t31.5 -19.5l11 -3v-7h-93h-64q-13 3 -28.5 17t-24.5 27l-10 13l-145 214v-181q0 -34 16.5 -54.5t32.5 -24.5l17 -4v-7h-66h-125h-66v7q3 0 7.5 1t15.5 6.5t20 13.5t16 24.5t7 37.5v447l-59 24q30 43 30 83q0 39 -18 55.5t-67 16.5 q-24 0 -41.5 -7.5t-28.5 -25.5t-17.5 -37t-9.5 -53t-4 -62t-1 -76h79v-14h-79v-351q0 -34 16.5 -54.5t33.5 -24.5l16 -4v-7h-257v7q3 0 7.5 1t15.5 6.5t20 13.5t16 24.5t7 37.5v351h-58v14h59q0 123 65.5 199t160.5 76q93 0 141 -49q46 21 89 49h9v-436l139 161h183 l-73 -100h-178l-61 -70h129l6 -10z" />
<glyph unicode="fr" horiz-adv-x="805" d="M814 366q7 -46 -16 -97l-104 42q28 39 15.5 67.5t-47.5 28.5q-25 0 -47 -23t-47 -89v-205q0 -34 16.5 -54.5t33.5 -24.5l16 -4v-7h-258v7q3 0 7.5 1t15.5 6.5t20 13.5t16 24.5t7 37.5v275q0 21 -7 37t-15.5 23t-20 11t-16 4.5t-7.5 0.5h-150v-351q0 -34 16.5 -54.5 t33.5 -24.5l16 -4v-7h-257v7q3 0 7.5 1t15.5 6.5t20 13.5t16 24.5t7 37.5v351h-58v14h59q0 125 69 200t178 75q98 0 151 -52t15 -159l-104 42q30 43 30 83t-18.5 56t-73.5 16q-29 0 -50 -7.5t-34 -25.5t-21 -36.5t-12 -53.5t-5 -62t-1 -76h303l39 -127q28 76 54.5 106.5 t77.5 30.5q41 0 74 -27.5t40 -71.5z" />
<glyph unicode="ft" horiz-adv-x="727" d="M687 107h5q-23 -117 -136 -117q-64 0 -100.5 35.5t-36.5 94.5l1 321h-72v14h72v62q-2 2 0 21t-3 49.5t-13 59t-29 49.5t-52 21q-18 0 -32.5 -4t-24.5 -14t-17.5 -20t-12 -28.5t-7 -31.5t-3.5 -38t-1 -39.5v-43.5v-43h70v-14h-69v-351q0 -34 16.5 -54.5t33.5 -24.5l16 -4 v-7h-257v7q3 0 7.5 1t15.5 6.5t20 13.5t16 24.5t7 37.5v351h-58v14h59q0 116 61 195.5t161 79.5q61 0 107 -22t68.5 -56.5t33.5 -68t11 -66.5v-62h130v-14h-130v-315q0 -86 64 -86q55 0 79 67z" />
<glyph horiz-adv-x="0" />
<glyph horiz-adv-x="333" />
<glyph unicode=" "  horiz-adv-x="300" />
<glyph unicode="&#x09;" horiz-adv-x="300" />
<glyph unicode="&#xa0;" horiz-adv-x="300" />
<glyph unicode="!" horiz-adv-x="296" d="M217 680l-65 -488h-7l-63 488q72 -14 135 0zM70 68q0 32 23 55t55 23t55 -23t23 -55t-23 -55t-55 -23t-55 23t-23 55z" />
<glyph unicode="&#x22;" horiz-adv-x="268" d="M80 680h18v-215h-18v215zM170 680h18v-215h-18v215z" />
<glyph unicode="#" horiz-adv-x="657" d="M617 412h-151l-49 -183h150v-18h-155l-57 -211h-19l57 211h-212l-57 -211h-19l57 211h-122v18h127l49 183h-126v18h131l67 250h19l-67 -250h212l67 250h19l-67 -250h146v-18zM398 229l49 183h-212l-49 -183h212z" />
<glyph unicode="$" horiz-adv-x="637" d="M406 397q87 -39 116 -61q74 -55 74 -151q0 -86 -57.5 -134.5t-150.5 -58.5v-115h-18v114q-8 -1 -25 -1q-9 0 -27 2v-115h-18v117q-31 6 -67 19.5t-61 27t-53 25t-43.5 13t-33.5 -7.5h-7l116 190h7q-2 -34 5.5 -71.5t23.5 -73.5t45.5 -64t67.5 -38v264q-43 19 -72.5 36.5 t-60 44t-46.5 62t-16 79.5q0 81 55.5 131t139.5 61v107h18v-105q9 1 28 1q16 0 24 -1v105h18v-106q40 -5 76 -20t53.5 -27t42.5 -19t43 4h9q-23 -39 -117 -190h-7q14 81 -10.5 147t-89.5 84v-267q3 -1 9 -3.5t9 -4.5zM346 677q-10 0 -28 -2v-239q27 -13 52 -23v262 q-16 2 -24 2zM213 559q0 -64 87 -113v224q-39 -12 -63 -42.5t-24 -68.5zM345 8q7 0 25 2v239q-11 5 -29 12t-23 9v-260q18 -2 27 -2zM388 13q45 11 76 40.5t31 74.5q0 65 -107 114v-229z" />
<glyph unicode="%" horiz-adv-x="795" d="M592 680h21l-400 -680h-21l382 649q-69 -42 -151 -42q-64 0 -135 31q46 -59 46 -146q0 -82 -42 -139.5t-107 -57.5t-107 57.5t-42 139.5q0 83 42 140.5t107 57.5q29 0 53 -12q2 0 6 -2q112 -53 179 -53q41 0 79.5 12.5t51 20t37.5 24.5v-1zM217 310q36 7 45.5 48.5 t-6.5 146.5q-17 100 -42 139t-61 32q-70 -14 -38 -196q17 -100 41.5 -138.5t60.5 -31.5zM611 385q65 0 107 -57.5t42 -140.5q0 -82 -42 -139.5t-107 -57.5t-107 57.5t-42 139.5q0 83 42 140.5t107 57.5zM643 5q36 7 45.5 48.5t-6.5 146.5q-17 100 -42 139t-61 32 q-70 -14 -38 -196q17 -100 41.5 -138.5t60.5 -31.5z" />
<glyph unicode="&#x26;" horiz-adv-x="824" d="M770 109h4q-8 -61 -62 -93.5t-119.5 -23.5t-104.5 54l-33 38q-49 -64 -130 -85.5t-154.5 5.5t-103.5 92q-40 89 9 176t147 106q-26 34 -37.5 49.5t-22 42t-10.5 53.5q0 76 61.5 121.5t155.5 45.5q89 0 138.5 -40.5t49.5 -100.5q0 -68 -45 -112t-112 -67l72 -92 q28 39 67 78q36 36 64.5 45t64.5 -7q38 -19 45 -55.5t-16.5 -71t-66.5 -47.5l-58 52q54 29 54 70q0 26 -22 31q-24 4 -51 -23q-50 -52 -71 -84l101 -128q4 -5 18 -23t21 -25.5t20 -17.5t26 -13q30 -8 58 3.5t43 46.5zM370 676q-47 0 -71.5 -30.5t-24.5 -75.5q0 -15 7 -33.5 t22.5 -40.5t27 -37t33.5 -41.5t30 -36.5q38 14 58.5 57t20.5 104q0 134 -103 134zM177 149q40 -87 126 -106t145 51l-218 275q-39 -8 -58 -46.5t-16.5 -85.5t21.5 -88z" />
<glyph unicode="'" horiz-adv-x="178" d="M80 680h18v-215h-18v215z" />
<glyph unicode="(" horiz-adv-x="378" d="M348 -210v20q-253 183 -250 449q3 304 250 452v19q-123 -66 -195.5 -183.5t-72.5 -287.5q0 -85 25 -163t66.5 -136t85 -99.5t91.5 -70.5z" />
<glyph unicode=")" horiz-adv-x="378" d="M30 -210q48 29 91.5 70.5t85 99.5t66.5 136t25 163q0 170 -72.5 287.5t-195.5 183.5v-19q247 -148 250 -452q3 -266 -250 -449v-20z" />
<glyph unicode="*" horiz-adv-x="464" d="M384 561l-141 -50l88 -117l-14 -11l-86 114l-86 -114l-14 11l89 118l-140 49l6 18l137 -49v150h18v-150l137 49z" />
<glyph unicode="+" horiz-adv-x="558" d="M508 310v-18h-218v-220h-18v220h-222v18h222v220h18v-220h218z" />
<glyph unicode="," horiz-adv-x="316" d="M158 146q33 0 55.5 -24t22.5 -64q0 -83 -42 -130t-84 -52v7q28 18 51.5 50.5t24.5 62.5q-13 -6 -28 -6q-32 0 -55 23t-23 55t23 55t55 23z" />
<glyph unicode="-" horiz-adv-x="418" d="M50 292v18h318v-18h-318z" />
<glyph unicode="." horiz-adv-x="316" d="M80 68q0 32 23 55t55 23t55 -23t23 -55t-23 -55t-55 -23t-55 23t-23 55z" />
<glyph unicode="/" horiz-adv-x="329" d="M64 0h-19l220 680h19z" />
<glyph unicode="0" horiz-adv-x="602" d="M36 339q0 147 74.5 249t190.5 102t190.5 -102t74.5 -249q0 -146 -74.5 -247.5t-190.5 -101.5t-190.5 101.5t-74.5 247.5zM176 317q31 -177 74 -244t107 -56q63 11 80.5 85.5t-11.5 258.5q-31 177 -75 245.5t-107 57.5t-80 -87t12 -260z" />
<glyph unicode="1" horiz-adv-x="423" d="M287 90q0 -34 25 -54.5t50 -24.5l26 -4v-7h-352v7q4 0 11 1t24.5 6.5t30.5 13.5t24 24.5t11 37.5v452h-102v6q61 21 121.5 54t90.5 56l30 22h10v-590z" />
<glyph unicode="2" horiz-adv-x="590" d="M513 128l-14 -128h-447v7q3 49 29 97.5t62 86.5t77.5 80t76.5 78.5t58 81.5t23 90q0 151 -105 151q-38 0 -64.5 -15t-39.5 -40t-18 -47.5t-5 -45.5q0 -52 19.5 -90.5t59.5 -37.5v-10q-80 -18 -127.5 25t-47.5 111q0 63 61.5 115.5t170.5 52.5q102 0 170 -53t68 -135 q0 -59 -29 -101t-77 -70t-99.5 -52.5t-108 -63.5t-90.5 -87h397z" />
<glyph unicode="3" horiz-adv-x="608" d="M382 370q69 -7 115 -55.5t46 -110.5q0 -97 -83.5 -155.5t-198.5 -58.5q-47 0 -90.5 13t-80.5 43t-46 79t12 119l125 -50q-19 -29 -27.5 -49.5t-8.5 -52.5q0 -41 37 -62.5t79 -21.5q62 0 103 45t41 121q0 155 -87 175q-20 4 -48 -10t-44 -14q-43 -2 -43 27q0 13 11.5 22 t30.5 8q13 -1 29 -6t22 -6t22 4q29 19 45 57t16 81q0 35 -2.5 57.5t-11.5 49t-30.5 40t-54.5 13.5q-30 0 -52.5 -10t-34 -23.5t-18.5 -32t-8.5 -31t-1.5 -25.5q0 -32 15.5 -65t47.5 -31v-9q-69 -17 -111 14.5t-43 88.5q-1 54 50.5 98t161.5 44q91 0 155 -45.5t64 -123.5 q0 -28 -7 -53.5t-31.5 -54.5t-64.5 -43z" />
<glyph unicode="4" horiz-adv-x="644" d="M594 192h-117v-102q0 -34 25.5 -54.5t50.5 -24.5l25 -4v-7h-352v7q4 0 11 1t24.5 6.5t30.5 13.5t24 24.5t11 37.5v102h-297v8l372 480h74v-470h16q42 0 76.5 39t49.5 95h6zM61 210h266v344z" />
<glyph unicode="5" horiz-adv-x="609" d="M411 430q68 -30 103 -91t35 -123q0 -38 -17.5 -77t-50 -72.5t-87 -55t-121.5 -21.5q-34 0 -68 8.5t-66.5 27t-52.5 48t-25.5 72t15.5 98.5l125 -50q-19 -29 -27.5 -49.5t-8.5 -52.5q0 -41 35 -62.5t77 -21.5q51 0 85.5 32.5t47.5 76t13 93.5q0 34 -5 63t-19 61.5 t-44.5 51.5t-75.5 19q-86 0 -161 -83h-6l60 358h8q95 -38 158 -38q39 0 81.5 12t65.5 24l23 12l-15 -138q-68 -35 -153 -35q-32 0 -73.5 8t-66.5 15.5t-31 10.5l-26 -159q37 44 114.5 56.5t153.5 -18.5z" />
<glyph unicode="6" horiz-adv-x="594" d="M541 479l-122 49q39 55 23 99.5t-74 44.5q-81 0 -130 -89.5t-55 -213.5q51 44 128 44q109 0 166.5 -62.5t57.5 -146.5q0 -94 -64.5 -154t-181.5 -60q-254 0 -254 294q0 99 27.5 178t74.5 127.5t106 74.5t125 26q29 0 58.5 -6.5t60.5 -21t48.5 -39t22.5 -60.5t-17 -84z M184 183q16 -95 43 -134.5t75 -39.5q53 0 87.5 32t34.5 110q0 31 -6 70q-16 87 -57.5 134t-100.5 33q-84 -20 -84 -128q0 -29 8 -77z" />
<glyph unicode="7" horiz-adv-x="573" d="M525 680v-7q-94 -129 -159.5 -309.5t-71.5 -363.5q-64 -22 -133 0q3 77 25 150.5t64.5 146t81.5 126t101 129.5h-361l14 128h439z" />
<glyph unicode="8" horiz-adv-x="585" d="M50 177q0 59 33 111t85 71q-86 42 -86 142q0 84 60 136.5t168 52.5q86 0 139 -47t53 -115q0 -42 -26 -87t-62 -71q55 -25 88 -72.5t33 -109.5q0 -87 -73 -142.5t-188 -55.5q-103 0 -163.5 53.5t-60.5 133.5zM447 528q0 144 -137 144q-110 0 -110 -122q0 -17 6.5 -33.5 t15 -28.5t25.5 -26t28 -22.5t33.5 -20t32 -16.5t32.5 -15t27 -12q47 44 47 152zM111 177q0 -169 163 -169q68 0 105.5 40t37.5 100q0 44 -26 78.5t-94 68.5l-117 56q-17 -8 -43 -62.5t-26 -111.5z" />
<glyph unicode="9" horiz-adv-x="568" d="M295 690q114 0 176 -84t62 -215q0 -97 -20.5 -171t-51 -116.5t-73.5 -69t-81.5 -35.5t-80.5 -9q-29 0 -58.5 6.5t-60.5 21t-48.5 39t-22.5 60.5t17 84l122 -49q-39 -55 -23 -99.5t74 -44.5q159 0 179 310q-54 -51 -130 -51q-103 0 -157 62t-54 145q0 94 60.5 155 t170.5 61zM406 501q-18 104 -55.5 143t-95.5 27q-117 -25 -86 -211q19 -101 63 -140.5t95 -26.5q52 13 74.5 59t4.5 149z" />
<glyph unicode=":" horiz-adv-x="316" d="M80 349q0 32 23 55t55 23t55 -23t23 -55t-23 -55t-55 -23t-55 23t-23 55zM80 68q0 32 23 55t55 23t55 -23t23 -55t-23 -55t-55 -23t-55 23t-23 55z" />
<glyph unicode=";" horiz-adv-x="317" d="M80 349q0 32 23 55t55 23t55 -23t23 -55t-23 -55t-55 -23t-55 23t-23 55zM158 146q33 0 55.5 -24t22.5 -64q0 -83 -42 -130t-84 -52v7q28 18 51.5 50.5t24.5 62.5q-13 -6 -28 -6q-32 0 -55 23t-23 55t23 55t55 23z" />
<glyph unicode="&#x3c;" horiz-adv-x="552" d="M472 95v-21l-392 204l389 200v-20l-349 -180z" />
<glyph unicode="=" horiz-adv-x="558" d="M50 389v18h458v-18h-458zM50 213v18h458v-18h-458z" />
<glyph unicode="&#x3e;" horiz-adv-x="552" d="M80 95l352 183l-349 180v20l389 -200l-392 -204v21z" />
<glyph unicode="?" horiz-adv-x="538" d="M274 690q98 0 161 -55.5t63 -172.5q0 -88 -57 -147.5t-141 -59.5q-48 0 -70 29v-106h-18v174h18q0 -79 69 -79q26 0 45 18.5t28 47.5t12.5 55t3.5 51q0 37 -0.5 55t-3.5 50.5t-10 49t-19 36t-32.5 28t-48.5 8.5q-45 0 -76.5 -21t-41.5 -51q-16 -51 31 -112l-128 -52 q-15 45 -8 90.5t28.5 82t72 59t122.5 22.5zM221 146q32 0 55 -23t23 -55t-23 -55t-55 -23t-55 23t-23 55t23 55t55 23z" />
<glyph unicode="@" horiz-adv-x="920" d="M885 319q0 -138 -95 -233.5t-217 -95.5q-59 0 -81.5 21.5t-17.5 58.5q-30 -38 -62 -59t-79 -21q-46 0 -74 27.5t-35.5 70t-3 90t20.5 92.5q31 87 98.5 141t154.5 54q45 0 63 -18t35 -65l96 73h8l-98 -378q-7 -19 -0.5 -39.5t26.5 -20.5q71 0 157 91.5t86 212.5 q0 146 -102 248.5t-265 102.5q-187 0 -317 -134t-130 -328q0 -176 114 -289t283 -113q115 0 237 71l9 -15q-121 -74 -248 -74q-79 0 -152.5 28t-132 80t-93.5 133t-35 179q0 206 135.5 343t331.5 137q171 0 277 -108t106 -263zM542 328q14 53 3 88t-45 35q-83 0 -140 -187 q-9 -31 -14 -67t-4.5 -71.5t13 -59t37.5 -23.5q46 0 82 43q58 203 68 242z" />
<glyph unicode="A" d="M647 75q13 -28 30.5 -45t28.5 -20l11 -3v-7h-302v7q2 0 5 0.5t13 2.5t17.5 5.5t17.5 10t13 15t5.5 21t-5.5 28.5l1 -2l-58 150h-221l-60 -159q-6 -29 11 -47t38 -22l20 -3v-7h-177v7q6 1 16.5 3.5t33.5 19.5t36 44l181 478l12 31q25 16 46.5 42.5t30.5 45.5l9 19h11z M210 256h207l-105 271z" />
<glyph unicode="B" horiz-adv-x="669" d="M402 360q232 -7 232 -175q0 -89 -54 -137t-191 -48h-354v7q3 0 7.5 1t15.5 6.5t20 13.5t16 24.5t7 37.5v500q0 34 -16.5 54.5t-32.5 24.5l-17 4v7h320q114 0 179.5 -44.5t65.5 -120.5q0 -71 -43 -107.5t-155 -47.5zM251 662v-297h60q68 0 105.5 39t37.5 103 q0 74 -37 114.5t-105 40.5h-61zM336 18q69 0 107.5 40.5t38.5 121.5q0 85 -41.5 126.5t-117.5 40.5h-72v-257q0 -29 13.5 -47t25 -21.5t22.5 -3.5h24z" />
<glyph unicode="C" horiz-adv-x="716" d="M424 53q94 0 150 44.5t80 112.5h5q-7 -35 -15 -62t-27 -58.5t-45 -51.5t-69 -34t-99 -14q-178 0 -273.5 94t-95.5 262q0 152 101 248t271 96q49 0 95 -14.5t70 -29t54 -21.5t47 7h8l-95 -201h-7q-2 42 -6.5 72.5t-15.5 64.5t-28 55t-46.5 35t-69.5 14q-95 0 -154 -85.5 t-59 -240.5q0 -130 62 -211.5t162 -81.5z" />
<glyph unicode="D" horiz-adv-x="721" d="M330 680q173 0 264.5 -97t91.5 -245q0 -160 -78.5 -249t-219.5 -89h-353v7q3 0 7.5 1t15.5 6.5t20 13.5t16 24.5t7 37.5v500q0 34 -16.5 54.5t-32.5 24.5l-17 4v7h295zM351 18q89 0 136 77t47 229q0 164 -54 251t-161 87h-68v-572q0 -29 13.5 -47t25 -21.5t22.5 -3.5h39z " />
<glyph unicode="E" horiz-adv-x="587" d="M545 261h7v-261h-517v7q3 0 7.5 1t15.5 6.5t20 13.5t16 24.5t7 37.5v500q0 34 -16.5 54.5t-32.5 24.5l-17 4v7h443l29 -168h-7q-20 67 -72 108.5t-132 41.5h-45v-297h233v-18h-233v-257q0 -29 13.5 -47t25 -21.5t22.5 -3.5h4q95 0 154.5 72t74.5 171z" />
<glyph unicode="F" horiz-adv-x="587" d="M321 662h-70v-297h251v-18h-251v-257q0 -34 16.5 -54.5t32.5 -24.5l17 -4v-7h-282v7q3 0 7.5 1t15.5 6.5t20 13.5t16 24.5t7 37.5v500q0 34 -16.5 54.5t-32.5 24.5l-17 4v7h488l29 -208h-7q-22 74 -81.5 132t-142.5 58z" />
<glyph unicode="G" horiz-adv-x="697" d="M424 365h229v-365h-8q-47 56 -109 128q-4 4 -5 6q-2 -48 -47 -96t-116 -48q-176 0 -254.5 90t-78.5 266q0 155 94 249.5t266 94.5q45 0 89.5 -13t68 -25.5t54 -18t47.5 8.5h8l-95 -201h-7q11 97 -30 164t-128 67q-93 0 -147.5 -84.5t-54.5 -241.5q0 -76 6.5 -130.5 t23.5 -105t52 -76.5t88 -26q60 0 102.5 44.5t42.5 97.5v197h-91v18z" />
<glyph unicode="H" horiz-adv-x="792" d="M757 673q-3 0 -7.5 -1t-15.5 -6.5t-20 -13.5t-16 -24.5t-7 -37.5v-500q0 -34 16.5 -54.5t32.5 -24.5l17 -4v-7h-282v7q3 0 7.5 1t15.5 6.5t20 13.5t16 24.5t7 37.5v257h-290v-257q0 -34 16.5 -54.5t32.5 -24.5l17 -4v-7h-282v7q3 0 7.5 1t15.5 6.5t20 13.5t16 24.5 t7 37.5v500q0 34 -16.5 54.5t-32.5 24.5l-17 4v7h282v-7q-3 0 -7.5 -1t-15.5 -6.5t-20 -13.5t-16 -24.5t-7 -37.5v-225h290v225q0 34 -16.5 54.5t-32.5 24.5l-17 4v7h282v-7z" />
<glyph unicode="I" horiz-adv-x="352" d="M317 673q-3 0 -7.5 -1t-15.5 -6.5t-20 -13.5t-16 -24.5t-7 -37.5v-500q0 -34 16.5 -54.5t32.5 -24.5l17 -4v-7h-282v7q3 0 7.5 1t15.5 6.5t20 13.5t16 24.5t7 37.5v500q0 34 -16.5 54.5t-32.5 24.5l-17 4v7h282v-7z" />
<glyph unicode="J" horiz-adv-x="575" d="M540 680v-7q-3 0 -7.5 -1t-15.5 -6.5t-20 -13.5t-16 -24.5t-7 -37.5v-409q0 -89 -63 -140t-165 -51q-76 0 -131.5 35.5t-73 97t15.5 143.5l122 -49q-29 -41 -34 -89.5t21 -84t80 -35.5q15 0 29 2t31.5 10t26.5 21t8 37.5t-17 57.5v454q0 34 -35 54.5t-70 24.5l-35 4v7 h356z" />
<glyph unicode="K" horiz-adv-x="721" d="M622 73q17 -27 35.5 -43.5t28.5 -19.5l10 -3v-7h-187q-24 10 -49 57l-153 284l-56 -64v-187q0 -34 16.5 -54.5t32.5 -24.5l17 -4v-7h-282v7q3 0 7.5 1t15.5 6.5t20 13.5t16 24.5t7 37.5v500q0 34 -16.5 54.5t-32.5 24.5l-17 4v7h282v-7q-3 0 -7.5 -1t-15.5 -6.5 t-20 -13.5t-16 -24.5t-7 -37.5v-286l247 288q13 17 17 30t-2 21.5t-16.5 14.5t-27 9t-31.5 4.5t-33 1.5v7h240v-7q-51 -6 -108 -64l-125 -145z" />
<glyph unicode="L" horiz-adv-x="627" d="M585 261h7l-40 -261h-517v7q3 0 7.5 1t15.5 6.5t20 13.5t16 24.5t7 37.5v500q0 34 -16.5 54.5t-32.5 24.5l-17 4v7h282v-7q-3 0 -7.5 -1t-15.5 -6.5t-20 -13.5t-16 -24.5t-7 -37.5v-500q0 -29 13.5 -47t25 -21.5t22.5 -3.5h4q65 0 121 37.5t90.5 89.5t57.5 116z" />
<glyph unicode="M" horiz-adv-x="933" d="M833 83q5 -31 21.5 -50t29.5 -23l14 -3v-7h-283v7q3 0 8 1t17.5 6.5t21.5 13.5t15.5 24.5t3.5 37.5v-1l-66 546l-134 -472l-45 -163h-9l-246 614l-62 -533q0 -30 16.5 -48.5t33.5 -22.5l17 -3v-7h-151v7q2 0 5.5 1t13.5 5.5t18.5 11t16.5 20t12 31.5l60 518 q-1 32 -17.5 52t-32.5 24l-16 3v7h220l173 -428l122 428h228v-7q-3 0 -8 -1t-17.5 -6.5t-21.5 -13.5t-15.5 -24.5t-3.5 -37.5l-1 4z" />
<glyph unicode="N" horiz-adv-x="701" d="M666 680v-7q-3 0 -7.5 -1t-15.5 -6.5t-20 -13.5t-16 -24.5t-7 -37.5v-590h-8l-473 572v-482q0 -34 16.5 -54.5t32.5 -24.5l17 -4v-7h-150v7q3 0 7.5 1t15.5 6.5t20 13.5t16 24.5t7 37.5v503l-66 80v7h191l356 -433v343q0 34 -16.5 54.5t-33.5 24.5l-16 4v7h150z" />
<glyph unicode="O" d="M35 329q0 72 21 135.5t62 114.5t107.5 81t150.5 30t150.5 -30t107.5 -81t62 -114.5t21 -135.5q0 -149 -87.5 -244t-253.5 -95t-253 95t-88 244zM204 300q29 -163 81.5 -234t148.5 -54q97 17 122.5 104t-5.5 244q-29 166 -83 245.5t-150 62.5q-65 -12 -97 -60t-33 -125.5 t16 -182.5z" />
<glyph unicode="P" horiz-adv-x="624" d="M327 680q126 0 194 -51t68 -137q0 -59 -26.5 -103t-68 -66t-87.5 -30t-91 -1q-29 5 -65 13v-215q0 -34 16.5 -54.5t32.5 -24.5l17 -4v-7h-282v7q3 0 7.5 1t15.5 6.5t20 13.5t16 24.5t7 37.5v500q0 34 -16.5 54.5t-32.5 24.5l-17 4v7h292zM280 322q85 0 124 40.5t39 127.5 q0 90 -33.5 131t-105.5 41h-53v-340h29z" />
<glyph unicode="Q" d="M560 -122q102 0 129 69h6q-1 -26 -6 -45.5t-19.5 -45.5t-49.5 -41t-88 -15q-39 0 -75 17t-65 41.5t-57.5 49.5t-63.5 42t-71 17q-31 0 -59 -15.5t-40 -41.5h-8q4 31 37.5 65t96.5 41q-94 37 -142.5 120t-49.5 193q0 72 21 135.5t62 114.5t107.5 81t150.5 30t150.5 -30 t107.5 -81t62 -114.5t21 -135.5q0 -149 -87.5 -244t-253.5 -95q-47 0 -82 7q53 -20 105.5 -51.5t88 -49.5t72.5 -18zM318 668q-65 -12 -97 -60t-33 -125.5t16 -182.5q29 -163 81.5 -234t148.5 -54q97 17 122.5 104t-5.5 244q-29 166 -83 245.5t-150 62.5z" />
<glyph unicode="R" horiz-adv-x="732" d="M624 64q15 -24 33 -39t29 -17l11 -3v-5h-188q-12 6 -23.5 20.5t-17.5 26.5l-6 12q-66 146 -109 234l-100 17v-222q0 -34 16.5 -54.5t32.5 -24.5l17 -4v-5h-284v5q3 0 7 1t15.5 6.5t20 13.5t15.5 24.5t7 37.5v500q0 22 -6.5 38.5t-16 24.5t-19.5 13t-16 6l-7 1v9h303 q124 0 193 -50t69 -129q0 -66 -42 -117.5t-142 -67.5q102 -22 135 -92zM253 331h37q164 0 164 169q0 90 -31.5 126t-110.5 36h-59v-331z" />
<glyph unicode="S" horiz-adv-x="637" d="M488 441q10 60 0.5 110.5t-46 85.5t-96.5 35q-58 0 -95.5 -32.5t-37.5 -80.5q0 -18 6 -34.5t20 -31t25.5 -24.5t34.5 -22.5t34.5 -18t38.5 -17t34 -14.5q87 -39 116 -61q74 -55 74 -151t-70.5 -145.5t-180.5 -49.5q-46 0 -98.5 18.5t-85.5 37t-69.5 29.5t-49.5 -4h-7 l116 190h7q-3 -54 13.5 -109.5t62 -99.5t111.5 -44q54 0 102 31.5t48 88.5q0 20 -10.5 38.5t-23.5 30.5t-36 25.5t-37 19.5t-39.5 16t-30.5 12q-48 20 -78.5 37t-65 44.5t-52 64.5t-17.5 84q0 92 71 141t170 49q66 0 117.5 -22t81 -36t58.5 -1h9q-23 -39 -117 -190h-7z" />
<glyph unicode="T" horiz-adv-x="666" d="M607 690l24 -218h-8q-7 31 -20 61.5t-33.5 60.5t-52 49t-69.5 19h-40v-572q0 -34 16.5 -54.5t33.5 -24.5l16 -4v-7h-282v7q3 0 7.5 1t15.5 6.5t20 13.5t16 24.5t7 37.5v572h-40q-38 0 -69.5 -19t-52 -49t-33.5 -60.5t-20 -61.5h-8l24 218h8q14 -10 98 -10h38h260h38 q84 0 98 10h8z" />
<glyph unicode="U" horiz-adv-x="665" d="M560 680h70v-7q-3 0 -7.5 -1t-16.5 -6.5t-20.5 -13.5t-15.5 -24.5t-6 -37.5v4l16 -381q4 -108 -61.5 -165.5t-174.5 -57.5q-117 0 -190 49t-70 127l17 434q-2 30 -18.5 48t-32.5 22l-15 3v7h69h147h3h63v-7q-3 0 -7 -1t-15.5 -6.5t-20 -13.5t-15.5 -24.5t-8 -37.5v13 l-17 -437q-2 -62 41.5 -108t105.5 -46q70 0 127 52.5t54 142.5l-17 391q-3 30 -19 49t-31 23l-15 3v7h62h4h11h3z" />
<glyph unicode="V" horiz-adv-x="718" d="M683 680v-7q-5 -1 -14 -5t-30.5 -21.5t-34.5 -42.5l-249 -604h-10l-231 601q-13 29 -33 47t-33 22l-13 3v7h309v-7q-2 0 -5.5 -0.5t-13 -2.5t-17 -5.5t-17.5 -10t-13.5 -15t-5.5 -21t6 -28.5l-12 27l159 -400l157 384q8 29 -10 47t-40 22l-21 3v7h172z" />
<glyph unicode="W" horiz-adv-x="1025" d="M990 680v-7q-6 -2 -15.5 -6t-31.5 -22.5t-35 -45.5l-174 -493l-37 -106h-10l-173 459l-138 -397l-22 -62h-10l-231 602q-13 29 -32.5 46.5t-32.5 21.5l-13 3v7h299v-7q-2 0 -5 -0.5t-11.5 -2.5t-15.5 -5.5t-15 -10t-12 -15t-3.5 -21t6.5 -28.5l-7 16l145 -371l159 445h15 l170 -445l125 355q0 1 1 1l2 7q5 20 0.5 34t-16 22t-23.5 12t-21 6l-9 1v7h171z" />
<glyph unicode="X" horiz-adv-x="732" d="M618 77q19 -28 39 -45.5t30 -21.5l10 -3v-7h-325v7q2 0 5.5 0.5t14 2.5t18 5t18.5 8.5t14.5 13t6 18.5t-5.5 25l-141 232l-139 -223l1 1q-13 -23 -12 -38t12 -24t23.5 -13.5t22.5 -6.5l10 -1v-7h-185v7q7 1 18 4t39.5 24t49.5 55l149 239l-164 271q-20 30 -41.5 48 t-33.5 22l-11 3v7h321v-7q-2 0 -5 -0.5t-12.5 -2.5t-17 -5t-16 -8.5t-13 -13t-4.5 -19t7 -25.5l107 -176l107 172q11 21 8 35.5t-15.5 23t-26 12.5t-24.5 6l-11 1v7h192v-7q-6 -1 -16.5 -4t-38 -22.5t-47.5 -51.5l-117 -189z" />
<glyph unicode="Y" horiz-adv-x="737" d="M702 680v-7q-7 -1 -18 -4t-39 -24t-48 -55v1l-149 -252v-249q0 -34 16.5 -54.5t33.5 -24.5l16 -4v-7h-282v7q3 0 7.5 1t15.5 6.5t20 13.5t16 24.5t7 37.5v190l-171 311v-1q-18 34 -41 54.5t-37 24.5l-14 4v7h320v-7q-2 0 -5 -0.5t-12 -2.5t-16 -5t-16 -8.5t-12.5 -13 t-5.5 -18.5t6 -25l137 -255l148 250q10 21 7 35.5t-15.5 23t-26 12.5t-24.5 6l-10 1v7h192z" />
<glyph unicode="Z" horiz-adv-x="655" d="M613 261h7l-71 -261h-514v7l395 655h-146q-39 0 -76 -20t-65 -53t-47.5 -66t-34.5 -68h-7l65 225h493v-7l-395 -655h96q96 0 178.5 73t121.5 170z" />
<glyph unicode="[" horiz-adv-x="259" d="M229 712h-131v-904h131v-18h-149v940h149v-18z" />
<glyph unicode="\" horiz-adv-x="329" d="M270 0l-220 680h19l220 -680h-19z" />
<glyph unicode="]" horiz-adv-x="259" d="M179 730v-940h-149v18h131v904h-131v18h149z" />
<glyph unicode="^" horiz-adv-x="504" d="M100 320h-20l174 370l170 -370h-20l-150 328z" />
<glyph unicode="_" horiz-adv-x="500" d="M500 -120h-500v18h500v-18z" />
<glyph unicode="`" horiz-adv-x="299" d="M237 721l-187 142l11 16l188 -143z" />
<glyph unicode="a" horiz-adv-x="524" d="M423 124q0 -24 7 -41.5t16.5 -25t19 -12t16.5 -4.5h7v-7l-164 -44l-27 82v1q-42 -83 -166 -83q-43 0 -77.5 29t-34.5 78q0 46 35 77.5t130 69.5l113 45v100q0 28 -7.5 42t-31.5 14q-38 0 -77 -23.5t-39 -58.5q0 -40 30 -83l-114 -46q-18 58 -4 101t54 71t90 42t104 14 q61 0 90.5 -30t29.5 -98v-210zM298 159v117q-74 -31 -107 -65.5t-33 -82.5q0 -44 15.5 -70.5t40.5 -26.5q84 0 84 128z" />
<glyph unicode="b" horiz-adv-x="620" d="M383 465q82 0 142 -63t60 -156q0 -107 -82.5 -181.5t-186.5 -74.5q-84 0 -123 89l-85 -79h-7v573q0 34 -16.5 54.5t-32.5 24.5l-17 4v7q80 12 149 47q1 1 13 8q6 2 20 12h9v-366q30 50 67 75.5t90 25.5zM316 4q66 0 103.5 55t37.5 146t-33.5 146t-96.5 55t-101 -63v-231 q0 -53 24 -80.5t66 -27.5z" />
<glyph unicode="c" horiz-adv-x="515" d="M475 153h5q-15 -77 -64.5 -120t-128.5 -43q-115 0 -183.5 63.5t-68.5 164.5q0 106 70.5 176.5t185.5 70.5q38 0 75.5 -14.5t67 -43t38.5 -72t-10 -101.5l-114 46q30 43 30 83q0 38 -24.5 63t-62.5 25q-44 0 -74 -36t-40.5 -82t-9.5 -97q1 -83 43.5 -132t106.5 -49 q50 0 94.5 22.5t63.5 75.5z" />
<glyph unicode="d" horiz-adv-x="615" d="M514 124q0 -24 7 -41.5t16.5 -25t19 -12t16.5 -4.5h7v-7l-164 -44l-27 82q-68 -80 -177 -80q-69 0 -123 61t-54 158q0 107 72.5 179t187.5 72q60 0 94 -37v148q0 34 -16.5 54.5t-32.5 24.5l-17 4v7q110 17 182 67h9v-606zM389 89v274q0 85 -93 85q-60 0 -97 -53t-37 -156 q0 -90 38 -139.5t92 -49.5q66 0 97 39z" />
<glyph unicode="e" horiz-adv-x="522" d="M486 222h-320q2 -70 41 -118.5t118 -48.5q123 0 157 121h5q-14 -88 -66 -136t-129 -48q-124 0 -190.5 65.5t-66.5 172.5q0 102 64 168.5t175 66.5q89 0 149 -67t63 -176zM166 236h200q-1 48 -5 83t-13.5 67t-28.5 48.5t-46 16.5q-37 0 -62 -32.5t-34.5 -78t-10.5 -104.5z " />
<glyph unicode="f" horiz-adv-x="358" d="M365 519l-104 42q30 43 30 83q0 38 -16 55t-50 17q-46 0 -66.5 -41t-12.5 -85q5 -30 25 -63.5t37 -52.5l17 -19h80v-14h-79v-351q0 -34 16.5 -54.5t33.5 -24.5l16 -4v-7h-257v7q3 0 7.5 1t15.5 6.5t20 13.5t16 24.5t7 37.5v351h-58v14h59l-6 6t-14 17.5t-15 28 t-10.5 38.5t1.5 49q13 71 58.5 103.5t108.5 32.5q29 0 59.5 -11t58 -36t34 -65.5t-11.5 -98.5z" />
<glyph unicode="g" horiz-adv-x="541" d="M328 62q107 19 150 -14t43 -109q0 -41 -20 -71t-55.5 -47t-78.5 -25t-95 -8q-117 0 -177 24t-60 67q0 63 111 73q-48 15 -70.5 41.5t-19.5 53.5t25 50q37 40 124 51q-68 9 -106 47.5t-38 102.5q0 72 54.5 119.5t155.5 47.5q45 0 79 -9q6 26 14 50q25 75 83 75 q35 0 53.5 -24.5t14 -58.5t-31.5 -60l-62 18q31 43 14 73q-12 22 -33 10q-15 -10 -23 -33q-10 -29 -16 -53q58 -18 89 -57t31 -93q0 -81 -57.5 -119t-167.5 -43q-111 -5 -111 -43q0 -68 181 -36zM194 290q16 -87 41 -112.5t61 -19.5q23 5 35 16.5t19 46t-6 95.5 q-14 81 -39 110.5t-61 23.5q-76 -13 -50 -160zM331 -192q49 7 75.5 37.5t19.5 69.5q-4 24 -25 32t-94 -1q-54 -8 -87.5 -8t-47.5 4l-15 5q-22 -7 -33.5 -32.5t-6.5 -50.5q9 -42 73.5 -55t140.5 -1z" />
<glyph unicode="h" horiz-adv-x="629" d="M528 90q0 -34 16.5 -54.5t33.5 -24.5l16 -4v-7h-258v7q3 0 7.5 1t15.5 6.5t20 13.5t16 24.5t7 37.5v252q0 72 -64 72q-58 0 -112 -69v-255q0 -34 16.5 -54.5t33.5 -24.5l16 -4v-7h-257v7q3 0 7.5 1t15.5 6.5t20 13.5t16 24.5t7 37.5v483q0 34 -16.5 54.5t-32.5 24.5 l-17 4v7q110 17 182 67h9v-365q77 97 187 97q50 0 82.5 -29t32.5 -85v-258z" />
<glyph unicode="i" horiz-adv-x="327" d="M163 526q-34 0 -58 24t-24 58t24 58t58 24t58 -24t24 -58t-24 -58t-58 -24zM226 90q0 -34 16.5 -54.5t33.5 -24.5l16 -4v-7h-257v7q3 0 7.5 1t15.5 6.5t20 13.5t16 24.5t7 37.5v226q0 34 -16.5 54.5t-32.5 24.5l-17 4v7q112 9 184 49h7v-365z" />
<glyph unicode="j" horiz-adv-x="300" d="M173 526q-34 0 -58 24t-24 58t24 58t58 24t58 -24t24 -58t-24 -58t-58 -24zM49 406q112 9 184 49h7v-455q0 -113 -36.5 -162.5t-123.5 -49.5q-32 0 -62.5 9.5t-56.5 30t-33 54t8 81.5l94 -38q-20 -21 -20 -53q0 -31 19.5 -50.5t50.5 -19.5q46 0 64 34.5t7.5 74.5 t-36.5 58v347q0 34 -16.5 54.5t-32.5 24.5l-17 4v7z" />
<glyph unicode="k" horiz-adv-x="618" d="M509 74q19 -28 39.5 -44.5t31.5 -19.5l11 -3v-7h-93h-64q-13 3 -28.5 17t-25.5 27l-9 13l-145 214v-181q0 -34 16.5 -54.5t33.5 -24.5l16 -4v-7h-66h-125h-66v7q3 0 7.5 1t15.5 6.5t20 13.5t16 24.5t7 37.5v483q0 34 -16.5 54.5t-32.5 24.5l-17 4v7q110 20 182 67h9v-436 l139 161h183l-73 -100h-178l-61 -70h129l6 -10z" />
<glyph unicode="l" horiz-adv-x="327" d="M226 90q0 -34 16.5 -54.5t33.5 -24.5l16 -4v-7h-257v7q3 0 7.5 1t15.5 6.5t20 13.5t16 24.5t7 37.5v483q0 34 -16.5 54.5t-32.5 24.5l-17 4v7q112 18 182 67h9v-640z" />
<glyph unicode="m" horiz-adv-x="886" d="M785 90q0 -34 16.5 -54.5t32.5 -24.5l17 -4v-7h-66h-125h-56v7q2 0 6 1t13.5 6.5t17 13.5t13.5 24.5t6 37.5v254q0 32 -14.5 51t-41.5 19q-56 0 -98 -70v-254q0 -34 14 -54.5t28 -24.5l14 -4v-7h-237v7q2 0 6 1t13.5 6.5t17 13.5t13.5 24.5t6 37.5v262q0 30 -15 46 t-41 16q-15 0 -25.5 -2.5t-31 -19.5t-42.5 -49v-253q0 -34 14 -54.5t28 -24.5l14 -4v-7h-56h-125h-66v7q3 0 7.5 1t15.5 6.5t20 13.5t16 24.5t7 37.5v226q0 34 -16.5 54.5t-32.5 24.5l-17 4v7q81 10 146 49h7l38 -88q72 98 162 98q78 0 116 -99q70 99 171 99q110 0 110 -118 v-257z" />
<glyph unicode="n" horiz-adv-x="630" d="M529 90q0 -34 16.5 -54.5t32.5 -24.5l17 -4v-7h-258v7q3 0 7.5 1t15.5 6.5t20 13.5t16 24.5t7 37.5v243q0 37 -16.5 59t-47.5 22q-57 0 -112 -70v-254q0 -34 16.5 -54.5t32.5 -24.5l17 -4v-7h-258v7q3 0 7.5 1t15.5 6.5t20 13.5t16 24.5t7 37.5v226q0 34 -16.5 54.5 t-32.5 24.5l-17 4v7q82 10 147 49h7l38 -90q79 100 185 100q49 0 83 -33.5t34 -89.5v-252z" />
<glyph unicode="o" horiz-adv-x="562" d="M35 227q0 103 62 170.5t184 67.5t184 -67.5t62 -170.5q0 -102 -62 -168.5t-184 -66.5t-184 66.5t-62 168.5zM177 210q21 -120 55.5 -165.5t87.5 -36.5t69 59.5t-3 176.5q-22 121 -56.5 167.5t-87.5 37.5t-69 -61t4 -178z" />
<glyph unicode="p" horiz-adv-x="618" d="M383 465q83 0 141.5 -72.5t58.5 -160.5q0 -110 -64.5 -175.5t-180.5 -65.5q-72 0 -112 52v-163q0 -34 16.5 -54.5t33.5 -24.5l16 -4v-7h-257v7q3 0 7.5 1t15.5 6.5t20 13.5t16 24.5t7 37.5v562q0 34 -16.5 54.5t-32.5 24.5l-17 4v7q113 6 184 49h7v-217q33 48 69.5 74.5 t87.5 26.5zM338 5q64 0 89.5 52t25.5 149q0 205 -111 205q-66 0 -116 -64v-248q0 -43 33.5 -68.5t78.5 -25.5z" />
<glyph unicode="q" horiz-adv-x="558" d="M430 381l85 74h8v-632l-125 -33v269q-64 -67 -161 -67q-91 0 -146.5 58t-55.5 165q0 106 82 178t183 72q49 0 77.5 -20.5t52.5 -63.5zM398 76v246q0 64 -22.5 96.5t-74.5 32.5q-63 0 -96 -54t-33 -154q0 -92 37 -147.5t102 -55.5q56 0 87 36z" />
<glyph unicode="r" horiz-adv-x="464" d="M473 366q7 -46 -16 -97l-104 42q28 39 15.5 67.5t-47.5 28.5q-25 0 -47 -23t-47 -89v-205q0 -34 16.5 -54.5t32.5 -24.5l17 -4v-7h-258v7q3 0 7.5 1t15.5 6.5t20 13.5t16 24.5t7 37.5v226q0 34 -16.5 54.5t-32.5 24.5l-17 4v7q88 13 143 49h10l39 -127q28 76 54.5 106.5 t77.5 30.5q41 0 74.5 -27.5t39.5 -71.5z" />
<glyph unicode="s" horiz-adv-x="502" d="M35 32l83 155h11q-10 -74 33 -128.5t106 -54.5q43 0 65.5 22.5t22.5 54.5q0 15 -6 26.5t-19.5 21.5t-24.5 16t-32.5 16.5t-32.5 16.5q-79 42 -102 63q-45 39 -45 96t46 92.5t128 35.5q30 0 63 -10.5t52.5 -21.5t42 -16.5t31.5 4.5h10l-72 -138h-9q5 71 -28.5 119.5 t-89.5 48.5q-43 0 -67.5 -20t-24.5 -55q0 -13 6.5 -24.5t21 -21.5t25 -16t31.5 -15.5t28 -12.5q87 -43 122.5 -76t35.5 -90q0 -60 -46.5 -95t-131.5 -35q-31 0 -69 12t-62.5 23t-53 16t-39.5 -9h-9z" />
<glyph unicode="t" horiz-adv-x="414" d="M374 107h5q-23 -117 -136 -117q-64 0 -100.5 35.5t-36.5 94.5l1 321h-82v14h82v97l115 88h9v-185h130v-14h-130v-315q0 -86 64 -86q55 0 79 67z" />
<glyph unicode="u" horiz-adv-x="629" d="M528 124q0 -24 7 -41.5t16.5 -25t19 -12t16.5 -4.5h7v-7l-165 -44l-26 93q-53 -93 -169 -93q-59 0 -96 33.5t-37 87.5v205q0 34 -16.5 54.5t-32.5 24.5l-17 4v7q108 10 184 49h8v-333q0 -36 17.5 -59t49.5 -23q70 0 109 63v213q0 34 -16.5 54.5t-32.5 24.5l-17 4v7 q108 12 184 49h7v-331z" />
<glyph unicode="v" horiz-adv-x="554" d="M519 455v-7q-33 -5 -61 -53l-141 -307l-40 -88h-9l-162 377q-14 29 -32 46.5t-28 20.5l-11 4v7h76h85h12h63v-7q-2 0 -5 -1t-11.5 -5.5t-12 -12t-6 -21t5.5 -32.5l93 -216l96 209q11 35 0.5 52.5t-29.5 22.5l-18 4v7h135z" />
<glyph unicode="w" horiz-adv-x="788" d="M753 455v-7q-4 -1 -11.5 -3.5t-25.5 -19t-31 -43.5l-133 -319l-26 -63h-8l-125 281l-115 -276l-2 4l-4 -9h-9l-159 380q-13 28 -30.5 45t-27.5 20l-11 3v7h76h86h13h62v-7q-2 0 -5.5 -1t-11.5 -6.5t-12.5 -13.5t-4.5 -24.5t9 -37.5l-1 1l83 -202l114 275l6 16h5l128 -286 l82 198l-1 -2q12 37 2 55.5t-29 23.5l-18 4v7h135z" />
<glyph unicode="x" horiz-adv-x="592" d="M482 72q20 -26 39 -42.5t27 -19.5l9 -3v-7h-263v7q3 0 7 1t13.5 5.5t15 11.5t5 21t-10.5 32l-84 122l-79 -111l1 1q-15 -21 -18.5 -37.5t3 -24.5t15 -13.5t16.5 -6.5l8 -1v-7h-148v7q5 1 14 3.5t34 20t48 45.5l98 137l-110 159q-22 31 -44 50t-32 22l-11 4v7h92h88h6h77 v-7q-1 0 -3.5 -0.5t-8 -2.5t-10 -5t-9 -8.5t-5.5 -13t2.5 -19t11.5 -25.5l68 -99l74 103q16 31 10.5 46.5t-20.5 19.5l-14 4v7h137v-7q-6 -1 -16 -4t-37.5 -24t-51.5 -55l-74 -103z" />
<glyph unicode="y" horiz-adv-x="588" d="M553 455v-7q-5 -1 -13 -4t-29.5 -24t-37.5 -55v1l-191 -389q-23 -46 -41 -85q-17 -40 -8.5 -62t40.5 -26q58 -8 75 36.5t-20 95.5l91 42q28 -56 21 -93.5t-40 -59t-68 -29.5t-62 -5q-41 4 -52 35t10 72l39 79l12 24l-175 378q-15 28 -32 45t-27 20l-10 4v7h243v-7 q-2 0 -5 -1t-11 -5.5t-11.5 -11.5t-6.5 -20.5t5 -32.5l100 -233l109 224q13 35 2.5 53t-30.5 23l-19 4v7h142z" />
<glyph unicode="z" horiz-adv-x="503" d="M468 447l-280 -433h81q62 0 113.5 55.5t80.5 126.5h5l-40 -196h-393v7l277 434h-47q-78 0 -123 -34.5t-74 -102.5h-7l39 151h368v-8z" />
<glyph unicode="{" horiz-adv-x="364" d="M334 -192q-100 0 -135 35t-35 121v171q0 55 -12 83.5t-45 40.5q33 12 45 41t12 83v158q0 89 36 130t134 41v18q-106 0 -147 -44t-41 -145v-158q0 -51 -14 -78t-52 -42v-7q39 -15 52.5 -42t13.5 -79v-171q0 -99 40 -136.5t148 -37.5v18z" />
<glyph unicode="|" horiz-adv-x="128" d="M60 0v730h18v-730h-18z" />
<glyph unicode="}" horiz-adv-x="364" d="M30 -192v-18q108 0 148 37.5t40 136.5v171q0 52 13.5 79t52.5 42v7q-38 15 -52 42t-14 78v158q0 101 -41 145t-147 44v-18q98 0 134 -41t36 -130v-158q0 -54 12 -83t45 -41q-33 -12 -45 -40.5t-12 -83.5v-171q0 -86 -35 -121t-135 -35z" />
<glyph unicode="~" horiz-adv-x="608" d="M442 178q41 7 86 70h-22q-32 -46 -67 -53q-45 -7 -131 46q-84 52 -149 37q-24 -6 -43.5 -20.5t-27.5 -25.5l-8 -12l23 -1q19 32 60 42q56 14 136 -35q92 -57 143 -48z" />
<glyph unicode="&#xa1;" horiz-adv-x="296" d="M70 602q0 32 23 55t55 23t55 -23t23 -55t-23 -55t-55 -23t-55 23t-23 55zM82 -10l63 488h7l65 -488q-63 14 -135 0z" />
<glyph unicode="&#xa2;" horiz-adv-x="515" d="M475 153h5q-15 -77 -64.5 -120t-128.5 -43v-94h-18v94q-108 6 -171 69t-63 159q0 101 64 170t170 76v96h18v-95h4q38 0 75.5 -14.5t67 -43t38.5 -72t-10 -101.5l-114 46q30 43 30 83q0 38 -24.5 63t-62.5 25h-4v-393q15 -3 30 -3q50 0 94.5 22.5t63.5 75.5zM167 236 q1 -66 28.5 -111.5t73.5 -61.5v386q-53 -12 -78 -75.5t-24 -137.5z" />
<glyph unicode="&#xa3;" horiz-adv-x="681" d="M453 99q62 0 103.5 46.5t52.5 97.5h8q-43 -250 -195 -250q-114 0 -206 78q-48 -71 -103 -71q-34 0 -56 21.5t-22 60.5q0 40 30.5 71.5t80.5 31.5t89 -13q18 42 -19 115h-103v18h94q-1 3 -3.5 7t-3.5 7q-1 2 -9 16t-13 22h-65v18h55q-46 82 -46 142q0 88 72.5 130.5 t197.5 42.5q35 0 68.5 -9.5t54 -22t44 -23.5t39.5 -14t40 5h8q-21 -38 -117 -191h-6q16 92 -18.5 164.5t-112.5 72.5q-67 0 -92.5 -34.5t-18.5 -100.5q3 -36 40 -159l1 -1v-2h147v-18h-143q4 -21 2 -52h141v-18h-144q-11 -67 -56 -129q10 -5 37.5 -19t42.5 -20.5t44 -13 t60 -6.5zM113 18q51 0 89 67q-49 46 -83 46q-26 0 -43.5 -17.5t-17.5 -42.5q0 -22 14 -37.5t41 -15.5z" />
<glyph unicode="&#xa4;" horiz-adv-x="594" d="M541 342q0 -98 -68 -169l86 -86l-13 -13l-86 86q-69 -61 -162 -61q-94 0 -162 62l-88 -88l-13 13l88 88q-67 69 -67 168q0 96 64 165l-85 85l13 13l85 -85q69 64 165 64q94 0 165 -63l83 83l13 -13l-83 -83q65 -72 65 -166zM298 117q91 0 158 67.5t67 157.5 q0 91 -67 157.5t-158 66.5t-157.5 -66.5t-66.5 -157.5q0 -92 66.5 -158.5t157.5 -66.5z" />
<glyph unicode="&#xa5;" horiz-adv-x="737" d="M702 680v-7q-7 -1 -18 -4t-39 -24t-48 -55v1l-143 -241h92v-18h-98v-52h98v-18h-98v-172q0 -34 16.5 -54.5t33.5 -24.5l16 -4v-7h-282v7q3 0 7.5 1t15.5 6.5t20 13.5t16 24.5t7 37.5v172h-108v18h108l-29 52h-79v18h69l-132 241v-1q-18 34 -41 54.5t-37 24.5l-14 4v7h320 v-7q-2 0 -5 -0.5t-12 -2.5t-16 -5t-16 -8.5t-12.5 -13t-5.5 -18.5t6 -25l137 -255l148 250q10 21 7 35.5t-15.5 23t-26 12.5t-24.5 6l-10 1v7h192z" />
<glyph unicode="&#xa6;" horiz-adv-x="118" d="M50 444v286h18v-286h-18zM50 0v286h18v-286h-18z" />
<glyph unicode="&#xa7;" horiz-adv-x="549" d="M511 283q0 -69 -47 -108t-122 -46q33 -14 50.5 -23.5t42 -29t36 -47t11.5 -64.5q0 -76 -56.5 -115.5t-143.5 -39.5q-46 0 -99 23.5t-89 39t-53 2.5h-6l92 151h6q-3 -43 10.5 -87.5t50 -79.5t88.5 -35q43 0 81 25.5t38 70.5q0 19 -9 35t-30 29t-33 20t-39.5 17.5 t-29.5 11.5q-38 16 -62.5 29.5t-52 35.5t-41 51.5t-13.5 66.5q0 65 44.5 105t112.5 49q-59 28 -93.5 66t-34.5 98q0 74 56.5 115t135.5 41q42 0 77 -11.5t51 -23.5t38.5 -18.5t37.5 2.5h8q-38 -63 -94 -152h-5q8 48 0.5 89t-36.5 70t-77 29q-46 0 -76 -27.5t-30 -66.5 q0 -15 4.5 -28t16 -24.5t20 -19.5t28 -17.5t28 -14t30.5 -14t27 -11.5q74 -33 98 -53q53 -44 53 -116zM312 142q43 1 80.5 26t37.5 70q0 19 -9 35t-30 29t-33 20t-39.5 17.5t-29.5 11.5l-16 7l1 -1q-43 -3 -70 -30t-27 -64q0 -23 11.5 -41.5t35.5 -34t40.5 -24t47.5 -21.5z " />
<glyph unicode="&#xa8;" horiz-adv-x="447" d="M50 799q0 29 20 48t49 19q28 0 48 -19t20 -48q0 -28 -20 -47t-48 -19q-29 0 -49 19t-20 47zM260 799q0 29 20 48t49 19q28 0 48 -19t20 -48q0 -28 -20 -47t-48 -19q-29 0 -49 19t-20 47z" />
<glyph unicode="&#xa9;" horiz-adv-x="773" d="M35 340q0 156 101 252.5t250 96.5t250.5 -96.5t101.5 -252.5q0 -157 -101.5 -253t-250.5 -96t-250 96t-101 253zM53 340q0 -149 95.5 -240t237.5 -91q141 0 237.5 91t96.5 240q0 147 -96.5 239.5t-237.5 92.5t-237 -92t-96 -240zM413 169q102 0 136 93h2 q-5 -27 -12.5 -46t-23 -40t-44 -32t-69.5 -11q-105 0 -161 55t-56 154q0 90 59.5 146.5t159.5 56.5q36 0 70.5 -13.5t47.5 -21.5t37 0h5l-55 -118h-4q-2 32 -6.5 53.5t-14 43.5t-29 33.5t-47.5 11.5q-57 0 -92 -50.5t-35 -141.5q0 -77 37 -125t95 -48z" />
<glyph unicode="&#xab;" horiz-adv-x="396" d="M215 432l-114 -190l114 -190h-21l-114 190l114 190h21zM316 432l-114 -190l114 -190h-21l-114 190l114 190h21z" />
<glyph unicode="&#xac;" horiz-adv-x="580" d="M500 330v-254h-18v236h-402v18h420z" />
<glyph unicode="&#xae;" horiz-adv-x="773" d="M386 689q149 0 250.5 -96.5t101.5 -252.5q0 -157 -101.5 -253t-250.5 -96t-250 96t-101 253q0 156 101 252.5t250 96.5zM386 9q141 0 237.5 91t96.5 240q0 147 -96.5 239.5t-237.5 92.5t-237 -92t-96 -240q0 -149 95.5 -240t237.5 -91zM545 182q8 -14 19 -23t18 -11l6 -1 v-3h-107q-7 4 -14 12.5t-10 15.5l-3 7q-39 85 -64 136l-58 10v-130q0 -20 9.5 -32t18.5 -14l10 -2v-3h-165v3q4 0 10.5 2t17 14t10.5 32v292q0 20 -9.5 32t-19.5 14l-9 2v5h127h49q73 0 113 -29t40 -75q0 -39 -25 -69t-85 -39q61 -16 79 -53zM332 526v-187h22q95 0 95 96 q0 50 -18.5 70.5t-64.5 20.5h-34z" />
<glyph unicode="&#xaf;" horiz-adv-x="410" d="M50 777h310v-18h-310v18z" />
<glyph unicode="&#xb0;" horiz-adv-x="515" d="M221 684q59 0 100 -41t41 -100t-41 -100.5t-100 -41.5t-100 41.5t-41 100.5t41 100t100 41zM222 419q51 0 86.5 36.5t35.5 87.5t-35.5 87t-86.5 36t-87.5 -36t-36.5 -87t37 -87.5t87 -36.5z" />
<glyph unicode="&#xb1;" horiz-adv-x="558" d="M290 355h218v-18h-218v-175h-18v175h-222v18h222v175h18v-175zM50 51v18h458v-18h-458z" />
<glyph unicode="&#xb2;" horiz-adv-x="398" d="M323 355l-7 -75h-264v5q2 34 22.5 67t48.5 60.5t55.5 54.5t46.5 58t19 62q0 90 -62 90q-42 0 -58.5 -27.5t-16.5 -60.5q0 -31 11.5 -53.5t34.5 -21.5v-6q-47 -11 -75 14.5t-28 65.5q0 37 36 68t101 31q61 0 101 -31t40 -80q0 -42 -27.5 -71.5t-63 -44.5t-80 -43 t-68.5 -62h234z" />
<glyph unicode="&#xb3;" horiz-adv-x="399" d="M240 500q40 -4 67 -33t27 -65q0 -56 -49 -90t-115 -34q-28 0 -53 7.5t-47 25t-27.5 45.5t6.5 70l74 -28q-22 -34 -22 -60q0 -25 21.5 -37.5t47.5 -12.5q36 0 59.5 26.5t23.5 71.5q0 88 -51 101q-11 3 -27.5 -5.5t-25.5 -8.5q-25 0 -25 16q0 20 24 18q8 0 24 -5.5t19 0.5 q36 23 36 80q0 28 -2.5 45t-16 32.5t-39.5 15.5q-28 0 -44.5 -14.5t-20 -28t-3.5 -28.5q0 -18 9.5 -37.5t28.5 -18.5v-5q-41 -10 -65 8.5t-25 51.5q-1 31 28.5 57.5t93.5 26.5q53 0 91 -27t38 -72q0 -66 -60 -88z" />
<glyph unicode="&#xb4;" horiz-adv-x="299" d="M62 721l-12 15l188 143l11 -16z" />
<glyph unicode="&#xb6;" horiz-adv-x="514" d="M469 680v-18h-58v-795h-18v795h-122v-795h-18v413q-81 0 -127 56.5t-46 149.5q0 83 47.5 139t125.5 55h216z" />
<glyph unicode="&#xb7;" horiz-adv-x="316" d="M80 294q0 32 23 55t55 23t55 -23t23 -55t-23 -55t-55 -23t-55 23t-23 55z" />
<glyph unicode="&#xb8;" horiz-adv-x="273" d="M50 -183q37 -44 82 -44q69 0 87 64q10 32 -4 56t-43 31q-24 6 -57 -7l35 83h-20l-46 -110h18q3 3 8.5 6.5t23 8.5t33.5 1q22 -5 31.5 -23t2.5 -41q-7 -27 -27 -39t-39 -12q-43 0 -72 39z" />
<glyph unicode="&#xb9;" horiz-adv-x="297" d="M193 337q0 -20 17 -32.5t34 -14.5l18 -2v-8h-227v8q3 0 7.5 0.5t16.5 3.5t21.5 8t17 14.5t7.5 22.5v259h-70v7q36 10 74 29t58 34l20 14h6v-343z" />
<glyph unicode="&#xbb;" horiz-adv-x="396" d="M101 432l114 -190l-114 -190h-21l114 190l-114 190h21zM202 432l114 -190l-114 -190h-21l114 190l-114 190h21z" />
<glyph unicode="&#xbc;" horiz-adv-x="467" d="M164 383v7q6 0 14.5 1.5t22.5 10t14 21.5v198h-51v5q28 9 55 22.5t41 22.5l13 9h8v-257q0 -13 12.5 -21.5t25.5 -9.5l13 -2v-7h-168zM35 346h397v-14h-397v14zM344 84h-51v-45q0 -14 13 -22t26 -9l13 -1v-7h-168v7q6 0 14.5 1t22.5 9t14 22v45h-130v4l163 209h32v-203h7 q18 0 31 17t20 42h7zM118 94h110v141z" />
<glyph unicode="&#xbd;" horiz-adv-x="467" d="M153 383v7q6 0 14.5 1.5t22.5 10t14 21.5v198h-51v5q28 9 55 22.5t40 22.5l14 9h8v-257q0 -13 13 -21.5t25 -9.5l13 -2v-7h-168zM35 346h397v-14h-397v14zM340 219q0 -31 -20 -53.5t-46.5 -33.5t-59 -31.5t-50.5 -45.5h173l-6 -55h-195v3q2 25 17.5 49.5t36 45t41 40.5 t34.5 43t14 46q0 66 -46 66q-32 0 -44 -20t-12 -44q0 -57 34 -57v-4q-35 -8 -55.5 11t-20.5 49q0 27 26.5 50t74.5 23q45 0 74.5 -23t29.5 -59z" />
<glyph unicode="&#xbe;" horiz-adv-x="467" d="M140 488l54 -23q-16 -23 -16 -44q0 -18 16.5 -27t34.5 -9q28 0 45.5 19t17.5 52q0 68 -37 77q-9 2 -21 -4.5t-20 -6.5q-19 0 -19 13q0 6 5.5 10t13.5 3q4 0 17.5 -3.5t14.5 0.5q26 14 26 59q0 22 -1.5 34t-11.5 24t-30 12q-30 0 -40.5 -17t-10.5 -36q0 -14 7 -28.5 t22 -13.5v-4q-30 -7 -48.5 6.5t-19.5 38.5q-1 24 22 43.5t71 19.5q39 0 67 -20.5t28 -54.5q0 -50 -45 -66q30 -2 50.5 -23.5t20.5 -48.5q0 -42 -36.5 -67.5t-87.5 -25.5q-47 0 -77.5 27.5t-11.5 83.5zM35 346h397v-14h-397v14zM344 84h-51v-45q0 -14 13 -22t26 -9l13 -1v-7 h-168v7q6 0 14.5 1t22.5 9t14 22v45h-130v4l163 209h32v-203h7q18 0 31 17t20 42h7zM118 94h110v141z" />
<glyph unicode="&#xbf;" horiz-adv-x="538" d="M317 354q-32 0 -55 23t-23 55t23 55t55 23t55 -23t23 -55t-23 -55t-55 -23zM479 64q15 -45 8 -90.5t-28.5 -82t-72 -59t-122.5 -22.5q-98 0 -161 55.5t-63 172.5q0 88 57 147.5t141 59.5q48 0 70 -29v106h18v-174h-18q0 79 -69 79q-26 0 -45 -18.5t-28 -47.5t-12.5 -55 t-3.5 -51q0 -37 0.5 -55t3.5 -50.5t10 -49t19 -36t32.5 -28t48.5 -8.5q45 0 76.5 21t41.5 51q16 51 -31 112z" />
<glyph unicode="&#xc0;" d="M489 736l-12 -15l-187 142l11 16zM647 75q13 -28 30.5 -45t28.5 -20l11 -3v-7h-302v7q2 0 5 0.5t13 2.5t17.5 5.5t17.5 10t13 15t5.5 21t-5.5 28.5l1 -2l-58 150h-221l-60 -159q-6 -29 11 -47t38 -22l20 -3v-7h-177v7q6 1 16.5 3.5t33.5 19.5t36 44l181 478l12 31 q25 16 46.5 42.5t30.5 45.5l9 19h11zM210 256h207l-105 271z" />
<glyph unicode="&#xc1;" d="M479 863l-187 -142l-12 15l188 143zM647 75q13 -28 30.5 -45t28.5 -20l11 -3v-7h-302v7q2 0 5 0.5t13 2.5t17.5 5.5t17.5 10t13 15t5.5 21t-5.5 28.5l1 -2l-58 150h-221l-60 -159q-6 -29 11 -47t38 -22l20 -3v-7h-177v7q6 1 16.5 3.5t33.5 19.5t36 44l181 478l12 31 q25 16 46.5 42.5t30.5 45.5l9 19h11zM210 256h207l-105 271z" />
<glyph unicode="&#xc2;" d="M521 736l-142 99l-143 -99v22l143 98l142 -98v-22zM647 75q13 -28 30.5 -45t28.5 -20l11 -3v-7h-302v7q2 0 5 0.5t13 2.5t17.5 5.5t17.5 10t13 15t5.5 21t-5.5 28.5l1 -2l-58 150h-221l-60 -159q-6 -29 11 -47t38 -22l20 -3v-7h-177v7q6 1 16.5 3.5t33.5 19.5t36 44 l181 478l12 31q25 16 46.5 42.5t30.5 45.5l9 19h11zM210 256h207l-105 271z" />
<glyph unicode="&#xc3;" d="M276 818q-15 -6 -26.5 -18.5t-15.5 -22.5l-4 -10h-21q2 6 6.5 15t20 27t34.5 25q45 17 104 -21q58 -36 86 -30q16 3 27 11.5t16.5 15.5t15.5 25h22q0 -1 -6.5 -10.5t-7.5 -11t-7 -10t-8.5 -10.5t-8.5 -8t-11 -8.5t-12 -5.5t-14 -5q-38 -9 -101 32q-52 32 -89 20zM647 75 q13 -28 30.5 -45t28.5 -20l11 -3v-7h-302v7q2 0 5 0.5t13 2.5t17.5 5.5t17.5 10t13 15t5.5 21t-5.5 28.5l1 -2l-58 150h-221l-60 -159q-6 -29 11 -47t38 -22l20 -3v-7h-177v7q6 1 16.5 3.5t33.5 19.5t36 44l181 478l12 31q25 16 46.5 42.5t30.5 45.5l9 19h11zM210 256h207 l-105 271z" />
<glyph unicode="&#xc4;" d="M268 733q-29 0 -49 19t-20 47q0 29 20 48t49 19q28 0 48 -19t20 -48q0 -28 -20 -47t-48 -19zM478 733q-29 0 -49 19t-20 47q0 29 20 48t49 19q28 0 48 -19t20 -48q0 -28 -20 -47t-48 -19zM647 75q13 -28 30.5 -45t28.5 -20l11 -3v-7h-302v7q2 0 5 0.5t13 2.5t17.5 5.5 t17.5 10t13 15t5.5 21t-5.5 28.5l1 -2l-58 150h-221l-60 -159q-6 -29 11 -47t38 -22l20 -3v-7h-177v7q6 1 16.5 3.5t33.5 19.5t36 44l181 478l12 31q25 16 46.5 42.5t30.5 45.5l9 19h11zM210 256h207l-105 271z" />
<glyph unicode="&#xc5;" d="M374 716q-34 0 -58 24t-24 59q0 34 24 58t58 24t58 -24t24 -58t-24 -58.5t-58 -24.5zM374 863q-26 0 -45 -19t-19 -45t19 -45t45 -19t45 19t19 45t-19 45t-45 19zM647 75q13 -28 30.5 -45t28.5 -20l11 -3v-7h-302v7q2 0 5 0.5t13 2.5t17.5 5.5t17.5 10t13 15t5.5 21 t-5.5 28.5l1 -2l-58 150h-221l-60 -159q-6 -29 11 -47t38 -22l20 -3v-7h-177v7q6 1 16.5 3.5t33.5 19.5t36 44l181 478l12 31q25 16 46.5 42.5t30.5 45.5l9 19h11zM210 256h207l-105 271z" />
<glyph unicode="&#xc6;" horiz-adv-x="932" d="M890 261h7v-261h-482v7q2 0 5 0.5t13 2.5t17.5 5.5t17.5 10t13 15t5.5 21t-5.5 28.5l1 -2l-58 150h-221l-60 -159q-6 -29 11 -47t38 -22l20 -3v-7h-177v7q6 1 16.5 3.5t33.5 19.5t36 44l181 478l12 31q25 16 46.5 40.5t30.5 40.5l9 16h423l29 -168h-7q-20 67 -72 108.5 t-132 41.5h-219l114 -297h293v-18h-286l126 -329q63 2 111.5 40t74 90t35.5 113zM210 256h207l-105 271z" />
<glyph unicode="&#xc7;" horiz-adv-x="716" d="M424 53q94 0 150 44.5t80 112.5h5q-7 -35 -15 -62t-27 -58.5t-45 -51.5t-69 -34t-99 -14h-9l-31 -73q33 13 57 7q29 -7 43 -31t4 -56q-18 -64 -87 -64q-45 0 -82 44l13 13q29 -39 72 -39q19 0 39 12t27 39q7 23 -2.5 41t-31.5 23q-16 4 -32.5 0t-24.5 -10l-8 -6h-18 l42 101q-164 7 -252 100.5t-88 254.5q0 152 101 248t271 96q49 0 95 -14.5t70 -29t54 -21.5t47 7h8l-95 -201h-7q-2 42 -6.5 72.5t-15.5 64.5t-28 55t-46.5 35t-69.5 14q-95 0 -154 -85.5t-59 -240.5q0 -130 62 -211.5t162 -81.5z" />
<glyph unicode="&#xc8;" horiz-adv-x="587" d="M370 736l-12 -15l-187 142l11 16zM545 261h7v-261h-517v7q3 0 7.5 1t15.5 6.5t20 13.5t16 24.5t7 37.5v500q0 34 -16.5 54.5t-32.5 24.5l-17 4v7h443l29 -168h-7q-20 67 -72 108.5t-132 41.5h-45v-297h233v-18h-233v-257q0 -29 13.5 -47t25 -21.5t22.5 -3.5h4 q95 0 154.5 72t74.5 171z" />
<glyph unicode="&#xc9;" horiz-adv-x="587" d="M394 863l-187 -142l-12 15l188 143zM545 261h7v-261h-517v7q3 0 7.5 1t15.5 6.5t20 13.5t16 24.5t7 37.5v500q0 34 -16.5 54.5t-32.5 24.5l-17 4v7h443l29 -168h-7q-20 67 -72 108.5t-132 41.5h-45v-297h233v-18h-233v-257q0 -29 13.5 -47t25 -21.5t22.5 -3.5h4 q95 0 154.5 72t74.5 171z" />
<glyph unicode="&#xca;" horiz-adv-x="587" d="M418 736l-142 99l-143 -99v22l143 98l142 -98v-22zM545 261h7v-261h-517v7q3 0 7.5 1t15.5 6.5t20 13.5t16 24.5t7 37.5v500q0 34 -16.5 54.5t-32.5 24.5l-17 4v7h443l29 -168h-7q-20 67 -72 108.5t-132 41.5h-45v-297h233v-18h-233v-257q0 -29 13.5 -47t25 -21.5 t22.5 -3.5h4q95 0 154.5 72t74.5 171z" />
<glyph unicode="&#xcb;" horiz-adv-x="587" d="M158 733q-29 0 -49 19t-20 47q0 29 20 48t49 19q28 0 48 -19t20 -48q0 -28 -20 -47t-48 -19zM368 733q-29 0 -49 19t-20 47q0 29 20 48t49 19q28 0 48 -19t20 -48q0 -28 -20 -47t-48 -19zM545 261h7v-261h-517v7q3 0 7.5 1t15.5 6.5t20 13.5t16 24.5t7 37.5v500 q0 34 -16.5 54.5t-32.5 24.5l-17 4v7h443l29 -168h-7q-20 67 -72 108.5t-132 41.5h-45v-297h233v-18h-233v-257q0 -29 13.5 -47t25 -21.5t22.5 -3.5h4q95 0 154.5 72t74.5 171z" />
<glyph unicode="&#xcc;" horiz-adv-x="352" d="M279 736l-12 -15l-187 142l11 16zM317 673q-3 0 -7.5 -1t-15.5 -6.5t-20 -13.5t-16 -24.5t-7 -37.5v-500q0 -34 16.5 -54.5t32.5 -24.5l17 -4v-7h-282v7q3 0 7.5 1t15.5 6.5t20 13.5t16 24.5t7 37.5v500q0 34 -16.5 54.5t-32.5 24.5l-17 4v7h282v-7z" />
<glyph unicode="&#xcd;" horiz-adv-x="352" d="M274 863l-187 -142l-12 15l188 143zM317 673q-3 0 -7.5 -1t-15.5 -6.5t-20 -13.5t-16 -24.5t-7 -37.5v-500q0 -34 16.5 -54.5t32.5 -24.5l17 -4v-7h-282v7q3 0 7.5 1t15.5 6.5t20 13.5t16 24.5t7 37.5v500q0 34 -16.5 54.5t-32.5 24.5l-17 4v7h282v-7z" />
<glyph unicode="&#xce;" horiz-adv-x="355" d="M178 856l142 -98v-22l-142 99l-143 -99v22zM319 680v-7q-3 0 -7.5 -1t-15.5 -6.5t-20 -13.5t-16 -24.5t-7 -37.5v-500q0 -34 16.5 -54.5t32.5 -24.5l17 -4v-7h-282v7q3 0 7.5 1t15.5 6.5t20 13.5t16 24.5t7 37.5v500q0 34 -16.5 54.5t-32.5 24.5l-17 4v7h282z" />
<glyph unicode="&#xcf;" horiz-adv-x="357" d="M142 799q0 -28 -20 -47t-48 -19q-29 0 -49 19t-20 47q0 29 20 48t49 19q28 0 48 -19t20 -48zM284 866q28 0 48 -19t20 -48q0 -28 -20 -47t-48 -19q-29 0 -49 19t-20 47q0 29 20 48t49 19zM319 680v-7q-3 0 -7.5 -1t-15.5 -6.5t-20 -13.5t-16 -24.5t-7 -37.5v-500 q0 -34 16.5 -54.5t32.5 -24.5l17 -4v-7h-282v7q3 0 7.5 1t15.5 6.5t20 13.5t16 24.5t7 37.5v500q0 34 -16.5 54.5t-32.5 24.5l-17 4v7h282z" />
<glyph unicode="&#xd0;" horiz-adv-x="722" d="M331 680q173 0 264.5 -97t91.5 -245q0 -160 -78.5 -249t-219.5 -89h-353v7q3 0 7.5 1t15.5 6.5t20 13.5t16 24.5t7 37.5v230h-67v18h67v252q0 34 -16.5 54.5t-33.5 24.5l-16 4v7h295zM352 18q89 0 136 77t47 229q0 164 -54 250.5t-161 86.5h-68v-323h141v-18h-141v-230 q0 -29 13.5 -47t25 -21.5t22.5 -3.5h39z" />
<glyph unicode="&#xd1;" horiz-adv-x="701" d="M258 818q-15 -5 -26.5 -17.5t-15.5 -22.5l-4 -11h-21q2 6 6.5 15t20 27t34.5 25q45 17 104 -21q56 -36 86 -30q16 3 27 11.5t16.5 15.5t15.5 25h22q0 -1 -6.5 -10.5t-7.5 -11t-7 -10t-8.5 -10.5t-8.5 -8t-11 -8.5t-12 -5.5t-14 -5q-38 -9 -101 32q-49 33 -89 20zM666 680 v-7q-3 0 -7.5 -1t-15.5 -6.5t-20 -13.5t-16 -24.5t-7 -37.5v-590h-8l-473 575v-485q0 -34 16.5 -54.5t32.5 -24.5l17 -4v-7h-150v7q3 0 7.5 1t15.5 6.5t20 13.5t16 24.5t7 37.5v506l-66 77v7h191l356 -433v343q0 34 -16.5 54.5t-33.5 24.5l-16 4v7h150z" />
<glyph unicode="&#xd2;" d="M447 721l-187 142l11 16l188 -143zM35 329q0 72 21 135.5t62 114.5t107.5 81t150.5 30t150.5 -30t107.5 -81t62 -114.5t21 -135.5q0 -149 -87.5 -244t-253.5 -95t-253.5 95t-87.5 244zM204 300q29 -163 81.5 -234t148.5 -54q97 17 122.5 104t-5.5 244q-29 166 -83 245.5 t-150 62.5q-65 -12 -97.5 -60t-33.5 -125.5t17 -182.5z" />
<glyph unicode="&#xd3;" d="M285 721l-12 15l188 143l11 -16zM35 329q0 72 21 135.5t62 114.5t107.5 81t150.5 30t150.5 -30t107.5 -81t62 -114.5t21 -135.5q0 -149 -87.5 -244t-253.5 -95t-253 95t-88 244zM204 300q29 -163 81.5 -234t148.5 -54q97 17 122.5 104t-5.5 244q-29 166 -83 245.5 t-150 62.5q-65 -12 -97 -60t-33 -125.5t16 -182.5z" />
<glyph unicode="&#xd4;" d="M517 736l-142 99l-143 -99v22l143 98l142 -98v-22zM35 329q0 72 21 135.5t62 114.5t107.5 81t150.5 30t150.5 -30t107.5 -81t62 -114.5t21 -135.5q0 -149 -87.5 -244t-253.5 -95t-253 95t-88 244zM204 300q29 -163 81.5 -234t148.5 -54q97 17 122.5 104t-5.5 244 q-29 166 -83 245.5t-150 62.5q-65 -12 -97 -60t-33 -125.5t16 -182.5z" />
<glyph unicode="&#xd5;" d="M220 767q12 40 46 51q40 13 89 -20q63 -41 101 -32q7 2 14 5t12 5.5t11 8.5t8.5 8t8.5 10.5t7 10t7.5 11t6.5 10.5h-22q-10 -18 -15.5 -25t-16.5 -15.5t-27 -11.5q-30 -6 -86 30q-59 38 -104 21q-19 -7 -34 -23.5t-21 -30.5l-6 -13h21zM35 329q0 72 21 135.5t62 114.5 t107.5 81t150.5 30t150.5 -30t107.5 -81t62 -114.5t21 -135.5q0 -149 -87.5 -244t-253.5 -95t-253.5 95t-87.5 244zM204 300q29 -163 81.5 -234t148.5 -54q97 17 122.5 104t-5.5 244q-29 166 -83 245.5t-150 62.5q-65 -12 -97.5 -60t-33.5 -125.5t17 -182.5z" />
<glyph unicode="&#xd6;" d="M193 799q0 29 20 48t49 19q28 0 48 -19t20 -48q0 -28 -20 -47t-48 -19q-29 0 -49 19t-20 47zM403 799q0 29 20 48t49 19q28 0 48 -19t20 -48q0 -28 -20 -47t-48 -19q-29 0 -49 19t-20 47zM35 329q0 72 21 135.5t62 114.5t107.5 81t150.5 30t150.5 -30t107.5 -81 t62 -114.5t21 -135.5q0 -149 -87.5 -244t-253.5 -95t-253.5 95t-87.5 244zM204 300q29 -163 81.5 -234t148.5 -54q97 17 122.5 104t-5.5 244q-29 166 -83 245.5t-150 62.5q-65 -12 -97.5 -60t-33.5 -125.5t17 -182.5z" />
<glyph unicode="&#xd7;" horiz-adv-x="445" d="M391 457l-156 -155l156 -156l-12 -12l-156 156l-157 -157l-12 12l156 157l-155 155l12 13l156 -156l155 156z" />
<glyph unicode="&#xd8;" d="M606 608q111 -102 111 -279q0 -149 -87.5 -244t-253.5 -95q-139 0 -228 71l-51 -61h-26l62 75q-96 91 -98 254q0 72 21 135.5t62 114.5t107.5 81t150.5 30q130 0 215 -69l50 59h26zM204 300q9 -52 25 -111l281 334q-62 169 -192 145q-65 -12 -97 -60t-33 -125.5 t16 -182.5zM434 12q97 17 122.5 104t-5.5 244q-14 82 -34 142l-281 -336q30 -90 77 -128.5t121 -25.5z" />
<glyph unicode="&#xd9;" horiz-adv-x="665" d="M429 736l-12 -15l-187 142l11 16zM560 680h70v-7q-3 0 -7.5 -1t-16.5 -6.5t-20.5 -13.5t-15.5 -24.5t-6 -37.5v4l16 -381q4 -108 -61.5 -165.5t-174.5 -57.5q-117 0 -190 49t-70 127l17 434q-2 30 -18.5 48t-32.5 22l-15 3v7h69h147h3h63v-7q-3 0 -7 -1t-15.5 -6.5 t-20 -13.5t-15.5 -24.5t-8 -37.5v13l-17 -437q-2 -62 41.5 -108t105.5 -46q70 0 127 52.5t54 142.5l-17 391q-3 30 -19 49t-31 23l-15 3v7h62h4h11h3z" />
<glyph unicode="&#xda;" horiz-adv-x="665" d="M460 863l-187 -142l-12 15l188 143zM560 680h70v-7q-3 0 -7.5 -1t-16.5 -6.5t-20.5 -13.5t-15.5 -24.5t-6 -37.5v4l16 -381q4 -108 -61.5 -165.5t-174.5 -57.5q-117 0 -190 49t-70 127l17 434q-2 30 -18.5 48t-32.5 22l-15 3v7h69h147h3h63v-7q-3 0 -7 -1t-15.5 -6.5 t-20 -13.5t-15.5 -24.5t-8 -37.5v13l-17 -437q-2 -62 41.5 -108t105.5 -46q70 0 127 52.5t54 142.5l-17 391q-3 30 -19 49t-31 23l-15 3v7h62h4h11h3z" />
<glyph unicode="&#xdb;" horiz-adv-x="665" d="M499 736l-142 99l-143 -99v22l143 98l142 -98v-22zM560 680h70v-7q-3 0 -7.5 -1t-16.5 -6.5t-20.5 -13.5t-15.5 -24.5t-6 -37.5v4l16 -381q4 -108 -61.5 -165.5t-174.5 -57.5q-117 0 -190 49t-70 127l17 434q-2 30 -18.5 48t-32.5 22l-15 3v7h69h147h3h63v-7q-3 0 -7 -1 t-15.5 -6.5t-20 -13.5t-15.5 -24.5t-8 -37.5v13l-17 -437q-2 -62 41.5 -108t105.5 -46q70 0 127 52.5t54 142.5l-17 391q-3 30 -19 49t-31 23l-15 3v7h62h4h11h3z" />
<glyph unicode="&#xdc;" horiz-adv-x="665" d="M261 733q-29 0 -49 19t-20 47q0 29 20 48t49 19q28 0 48 -19t20 -48q0 -28 -20 -47t-48 -19zM471 733q-29 0 -49 19t-20 47q0 29 20 48t49 19q28 0 48 -19t20 -48q0 -28 -20 -47t-48 -19zM560 680h70v-7q-3 0 -7.5 -1t-16.5 -6.5t-20.5 -13.5t-15.5 -24.5t-6 -37.5v4 l16 -381q4 -108 -61.5 -165.5t-174.5 -57.5q-117 0 -190 49t-70 127l17 434q-2 30 -18.5 48t-32.5 22l-15 3v7h69h147h3h63v-7q-3 0 -7 -1t-15.5 -6.5t-20 -13.5t-15.5 -24.5t-8 -37.5v13l-17 -437q-2 -62 41.5 -108t105.5 -46q70 0 127 52.5t54 142.5l-17 391q-3 30 -19 49 t-31 23l-15 3v7h62h4h11h3z" />
<glyph unicode="&#xdd;" horiz-adv-x="737" d="M522 863l-187 -142l-12 15l188 143zM702 680v-7q-7 -1 -18 -4t-39 -24t-48 -55v1l-149 -252v-249q0 -34 16.5 -54.5t33.5 -24.5l16 -4v-7h-282v7q3 0 7.5 1t15.5 6.5t20 13.5t16 24.5t7 37.5v190l-171 311v-1q-18 34 -41 54.5t-37 24.5l-14 4v7h320v-7q-2 0 -5 -0.5 t-12 -2.5t-16 -5t-16 -8.5t-12.5 -13t-5.5 -18.5t6 -25l137 -255l148 250q10 21 7 35.5t-15.5 23t-26 12.5t-24.5 6l-10 1v7h192z" />
<glyph unicode="&#xde;" horiz-adv-x="624" d="M327 550q126 0 194 -51t68 -137q0 -59 -26.5 -103t-68 -66t-87.5 -30t-91 -1q-29 5 -65 13v-85q0 -34 16.5 -54.5t32.5 -24.5l17 -4v-7h-282v7q3 0 7.5 1t15.5 6.5t20 13.5t16 24.5t7 37.5v500q0 34 -16.5 54.5t-32.5 24.5l-17 4v7h282v-7q-3 0 -7.5 -1t-15.5 -6.5 t-20 -13.5t-16 -24.5t-7 -37.5v-40h76zM280 192q85 0 124 40.5t39 127.5q0 90 -33.5 131t-105.5 41h-53v-340h29z" />
<glyph unicode="&#xdf;" horiz-adv-x="709" d="M516 286q87 -43 122.5 -76t35.5 -90q0 -60 -46.5 -95t-131.5 -35q-31 0 -69 12t-62.5 23t-53 16t-39.5 -9l-7 4l83 156l9 -5q-10 -74 33 -127t106 -53q43 0 65.5 21t22.5 53q0 15 -6 26.5t-19.5 21.5t-24.5 16t-32.5 16.5t-32.5 16.5q-35 19 -55.5 31.5t-45.5 33.5 t-37 45.5t-12 54.5q0 44 19 72.5t67 57.5q46 29 62 71.5t3.5 80t-47 65t-79.5 27.5q-25 0 -44 -6.5t-31.5 -14.5t-21 -28t-12.5 -34t-6.5 -46.5t-2.5 -50.5v-61v-21v-455h-191v7q3 0 7.5 1t15.5 6.5t20 13.5t16 24.5t7 37.5v347h-58v18h59q0 135 57.5 205t184.5 70 q60 0 110 -17.5t77.5 -45.5t36.5 -61.5t-11.5 -69t-69.5 -62.5q-22 -12 -33.5 -19.5t-29.5 -21.5t-26.5 -28t-8.5 -29q0 -16 15 -31t31 -23t44.5 -20t36.5 -16z" />
<glyph unicode="&#xe0;" horiz-adv-x="524" d="M340 537l-12 -15l-187 142l11 16zM423 124q0 -24 7 -41.5t16.5 -25t19 -12t16.5 -4.5h7v-7l-164 -44l-27 82v1q-42 -83 -166 -83q-43 0 -77.5 29t-34.5 78q0 46 35 77.5t130 69.5l113 45v100q0 28 -7.5 42t-31.5 14q-38 0 -77 -23.5t-39 -58.5q0 -40 30 -83l-114 -46 q-18 58 -4 101t54 71t90 42t104 14q61 0 90.5 -30t29.5 -98v-210zM298 159v117q-74 -31 -107 -65.5t-33 -82.5q0 -44 15.5 -70.5t40.5 -26.5q84 0 84 128z" />
<glyph unicode="&#xe1;" horiz-adv-x="524" d="M349 664l-187 -142l-12 15l188 143zM423 124q0 -24 7 -41.5t16.5 -25t19 -12t16.5 -4.5h7v-7l-164 -44l-27 82v1q-42 -83 -166 -83q-43 0 -77.5 29t-34.5 78q0 46 35 77.5t130 69.5l113 45v100q0 28 -7.5 42t-31.5 14q-38 0 -77 -23.5t-39 -58.5q0 -40 30 -83l-114 -46 q-18 58 -4 101t54 71t90 42t104 14q61 0 90.5 -30t29.5 -98v-210zM298 159v117q-74 -31 -107 -65.5t-33 -82.5q0 -44 15.5 -70.5t40.5 -26.5q84 0 84 128z" />
<glyph unicode="&#xe2;" horiz-adv-x="524" d="M388 530l-142 99l-143 -99v22l143 98l142 -98v-22zM423 124q0 -24 7 -41.5t16.5 -25t19 -12t16.5 -4.5h7v-7l-164 -44l-20 60q-7 10 -7 22l1 2q1 2 2 4.5l1 2.5q-46 -91 -170 -91q-43 0 -77.5 29t-34.5 78q0 46 35 77.5t130 69.5l113 45v100q0 28 -7.5 42t-31.5 14 q-38 0 -77 -23.5t-39 -58.5q0 -40 30 -83l-114 -46q-18 58 -4 101t54 71t90 42t104 14q61 0 90.5 -30t29.5 -98v-210zM298 159v117q-74 -31 -107 -65.5t-33 -82.5q0 -44 15.5 -70.5t40.5 -26.5q84 0 84 128z" />
<glyph unicode="&#xe3;" horiz-adv-x="524" d="M148 613q-15 -5 -26.5 -17.5t-15.5 -23.5l-4 -10h-21q2 6 6.5 15t20 27t34.5 25q45 17 104 -21q56 -36 86 -30q16 3 27 11.5t16.5 15.5t15.5 25h22q0 -1 -6.5 -10.5t-7.5 -11t-7 -10t-8.5 -10.5t-8.5 -8t-11 -8.5t-12 -5.5t-14 -5q-38 -9 -101 32q-49 33 -89 20zM423 124 q0 -24 7 -41.5t16.5 -25t19 -12t16.5 -4.5h7v-7l-164 -44l-27 82v1q-42 -83 -166 -83q-43 0 -77.5 29t-34.5 78q0 46 35 77.5t130 69.5l113 45v100q0 28 -7.5 42t-31.5 14q-38 0 -77 -23.5t-39 -58.5q0 -40 30 -83l-114 -46q-18 58 -4 101t54 71t90 42t104 14q61 0 90.5 -30 t29.5 -98v-210zM298 159v117q-74 -31 -107 -65.5t-33 -82.5q0 -44 15.5 -70.5t40.5 -26.5q84 0 84 128z" />
<glyph unicode="&#xe4;" horiz-adv-x="524" d="M138 527q-29 0 -49 19t-20 47q0 29 20 48t49 19q28 0 48 -19t20 -48q0 -28 -20 -47t-48 -19zM348 527q-29 0 -49 19t-20 47q0 29 20 48t49 19q28 0 48 -19t20 -48q0 -28 -20 -47t-48 -19zM423 124q0 -24 7 -41.5t16.5 -25t19 -12t16.5 -4.5h7v-7l-164 -44l-27 82v1 q-42 -83 -166 -83q-43 0 -77.5 29t-34.5 78q0 46 35 77.5t130 69.5l113 45v100q0 28 -7.5 42t-31.5 14q-38 0 -77 -23.5t-39 -58.5q0 -40 30 -83l-114 -46q-18 58 -4 101t54 71t90 42t104 14q61 0 90.5 -30t29.5 -98v-210zM298 159v117q-74 -31 -107 -65.5t-33 -82.5 q0 -44 15.5 -70.5t40.5 -26.5q84 0 84 128z" />
<glyph unicode="&#xe5;" horiz-adv-x="524" d="M235 525q-34 0 -58 24t-24 59q0 34 24 58t58 24t58 -24t24 -58t-24 -58.5t-58 -24.5zM235 672q-26 0 -45 -19t-19 -45t19 -45t45 -19t45 19t19 45t-19 45t-45 19zM423 124q0 -24 7 -41.5t16.5 -25t19 -12t16.5 -4.5h7v-7l-164 -44l-27 82v1q-42 -83 -166 -83 q-43 0 -77.5 29t-34.5 78q0 46 35 77.5t130 69.5l113 45v100q0 28 -7.5 42t-31.5 14q-38 0 -77 -23.5t-39 -58.5q0 -40 30 -83l-114 -46q-18 58 -4 101t54 71t90 42t104 14q61 0 90.5 -30t29.5 -98v-210zM298 159v117q-74 -31 -107 -65.5t-33 -82.5q0 -44 15.5 -70.5 t40.5 -26.5q84 0 84 128z" />
<glyph unicode="&#xe7;" horiz-adv-x="515" d="M287 -10h-6l-31 -73q33 13 57 7q29 -8 42.5 -31.5t4.5 -55.5q-19 -64 -87 -64q-45 0 -82 44l13 13q29 -39 72 -39q19 0 39 12t27 39q6 24 -3.5 42t-30.5 22q-16 4 -32.5 0t-24.5 -10l-8 -6h-18l42 101q-104 7 -165 69.5t-61 157.5q0 106 70.5 176.5t185.5 70.5 q38 0 75.5 -14.5t67 -43t38.5 -72t-10 -101.5l-114 46q30 43 30 83q0 38 -24.5 63t-62.5 25q-44 0 -74 -36t-40.5 -82t-9.5 -97q1 -83 43.5 -132t106.5 -49q50 0 94.5 22.5t63.5 75.5h5q-15 -77 -64.5 -120t-128.5 -43z" />
<glyph unicode="&#xe8;" horiz-adv-x="500" d="M331 522l-187 142l11 16l188 -143zM486 222h-320q2 -70 41 -118.5t118 -48.5q123 0 157 121h5q-14 -88 -66 -136t-129 -48q-124 0 -190.5 65.5t-66.5 172.5q0 102 64 168.5t175 66.5q89 0 149 -67t63 -176zM166 236h200q-1 48 -5 83t-13.5 67t-28.5 48.5t-46 16.5 q-37 0 -62 -32.5t-34.5 -78t-10.5 -104.5z" />
<glyph unicode="&#xe9;" horiz-adv-x="522" d="M172 522l-12 15l188 143l11 -16zM486 222h-320q2 -70 41 -118.5t118 -48.5q123 0 157 121h5q-14 -88 -66 -136t-129 -48q-124 0 -190.5 65.5t-66.5 172.5q0 102 64 168.5t175 66.5q89 0 149 -67t63 -176zM166 236h200q-1 48 -5 83t-13.5 67t-28.5 48.5t-46 16.5 q-37 0 -62 -32.5t-34.5 -78t-10.5 -104.5z" />
<glyph unicode="&#xea;" horiz-adv-x="522" d="M410 530l-142 99l-143 -99v22l143 98l142 -98v-22zM486 222h-320q2 -70 41 -118.5t118 -48.5q123 0 157 121h5q-14 -88 -66 -136t-129 -48q-124 0 -190.5 65.5t-66.5 172.5q0 102 64 168.5t175 66.5q89 0 149 -67t63 -176zM166 236h200q-1 48 -5 83t-13.5 67t-28.5 48.5 t-46 16.5q-37 0 -62 -32.5t-34.5 -78t-10.5 -104.5z" />
<glyph unicode="&#xeb;" horiz-adv-x="522" d="M89 593q0 29 20 48t49 19q28 0 48 -19t20 -48q0 -28 -20 -47t-48 -19q-29 0 -49 19t-20 47zM299 593q0 29 20 48t49 19q28 0 48 -19t20 -48q0 -28 -20 -47t-48 -19q-29 0 -49 19t-20 47zM486 222h-320q2 -70 41 -118.5t118 -48.5q123 0 157 121h5q-14 -88 -66 -136 t-129 -48q-124 0 -190.5 65.5t-66.5 172.5q0 102 64 168.5t175 66.5q89 0 149 -67t63 -176zM166 236h200q-1 48 -5 83t-13.5 67t-28.5 48.5t-46 16.5q-37 0 -62 -32.5t-34.5 -78t-10.5 -104.5z" />
<glyph unicode="&#xec;" horiz-adv-x="327" d="M264 537l-12 -15l-187 142l11 16zM226 90q0 -34 16.5 -54.5t33.5 -24.5l16 -4v-7h-257v7q3 0 7.5 1t15.5 6.5t20 13.5t16 24.5t7 37.5v226q0 34 -16.5 54.5t-32.5 24.5l-17 4v7q112 9 184 49h7v-365z" />
<glyph unicode="&#xed;" horiz-adv-x="327" d="M242 664l-187 -142l-12 15l188 143zM226 90q0 -34 16.5 -54.5t33.5 -24.5l16 -4v-7h-257v7q3 0 7.5 1t15.5 6.5t20 13.5t16 24.5t7 37.5v226q0 34 -16.5 54.5t-32.5 24.5l-17 4v7q112 9 184 49h7v-365z" />
<glyph unicode="&#xee;" horiz-adv-x="330" d="M153 650l142 -98v-22l-142 99l-143 -99v22zM228 90q0 -34 16.5 -54.5t33.5 -24.5l16 -4v-7h-257v7q3 0 7.5 1t15.5 6.5t20 13.5t16 24.5t7 37.5v226q0 34 -16.5 54.5t-32.5 24.5l-17 4v7q112 9 184 49h7v-365z" />
<glyph unicode="&#xef;" horiz-adv-x="327" d="M116 593q0 -28 -20 -47t-48 -19q-29 0 -49 19t-20 47q0 29 20 48t49 19q28 0 48 -19t20 -48zM258 660q28 0 48 -19t20 -48q0 -28 -20 -47t-48 -19q-29 0 -49 19t-20 47q0 29 20 48t49 19zM226 90q0 -34 16.5 -54.5t33.5 -24.5l16 -4v-7h-257v7q3 0 7.5 1t15.5 6.5 t20 13.5t16 24.5t7 37.5v226q0 34 -16.5 54.5t-32.5 24.5l-17 4v7q112 9 184 49h7v-365z" />
<glyph unicode="&#xf0;" horiz-adv-x="570" d="M366 590q169 -120 169 -306q0 -294 -259 -294q-117 0 -179 60t-62 154q0 84 57.5 146.5t166.5 62.5q77 0 128 -44q-15 107 -84 191l-127 -61v20l114 55q-65 72 -154 99v7q33 0 93.5 -20t118.5 -58l132 63v-20zM394 183q8 48 8 77q0 61 -30 94.5t-79 33.5q-45 0 -81 -39.5 t-52 -127.5q-6 -39 -6 -70q0 -78 34.5 -110.5t87.5 -32.5q48 0 74.5 40t43.5 135z" />
<glyph unicode="&#xf1;" horiz-adv-x="630" d="M208 613q-15 -5 -26.5 -17.5t-15.5 -23.5l-4 -10h-21q2 6 6.5 15t20 27t34.5 25q45 17 104 -21q56 -36 86 -30q16 3 27 11.5t16.5 15.5t15.5 25h22q0 -1 -6.5 -10.5t-7.5 -11t-7 -10t-8.5 -10.5t-8.5 -8t-11 -8.5t-12 -5.5t-14 -5q-38 -9 -101 32q-49 33 -89 20zM529 90 q0 -34 16.5 -54.5t32.5 -24.5l17 -4v-7h-258v7q3 0 7.5 1t15.5 6.5t20 13.5t16 24.5t7 37.5v243q0 37 -16.5 59t-47.5 22q-57 0 -112 -70v-254q0 -34 16.5 -54.5t32.5 -24.5l17 -4v-7h-258v7q3 0 7.5 1t15.5 6.5t20 13.5t16 24.5t7 37.5v226q0 34 -16.5 54.5t-32.5 24.5 l-17 4v7q82 10 147 49h7l38 -90q79 100 185 100q49 0 83 -33.5t34 -89.5v-252z" />
<glyph unicode="&#xf2;" horiz-adv-x="562" d="M347 522l-187 142l11 16l188 -143zM35 227q0 103 62 170.5t184 67.5t184 -67.5t62 -170.5q0 -102 -62 -168.5t-184 -66.5t-184 66.5t-62 168.5zM177 210q21 -120 55.5 -165.5t87.5 -36.5t69 59.5t-3 176.5q-22 121 -56.5 167.5t-87.5 37.5t-69 -61t4 -178z" />
<glyph unicode="&#xf3;" horiz-adv-x="562" d="M172 522l-12 15l188 143l11 -16zM35 227q0 103 62 170.5t184 67.5t184 -67.5t62 -170.5q0 -102 -62 -168.5t-184 -66.5t-184 66.5t-62 168.5zM177 210q21 -120 55.5 -165.5t87.5 -36.5t69 59.5t-3 176.5q-22 121 -56.5 167.5t-87.5 37.5t-69 -61t4 -178z" />
<glyph unicode="&#xf4;" horiz-adv-x="562" d="M410 530l-142 99l-143 -99v22l143 98l142 -98v-22zM35 227q0 103 62 170.5t184 67.5t184 -67.5t62 -170.5q0 -102 -62 -168.5t-184 -66.5t-184 66.5t-62 168.5zM177 210q21 -120 55.5 -165.5t87.5 -36.5t69 59.5t-3 176.5q-22 121 -56.5 167.5t-87.5 37.5t-69 -61t4 -178 z" />
<glyph unicode="&#xf5;" horiz-adv-x="562" d="M136 562q12 40 46 51q40 13 89 -20q63 -41 101 -32q7 2 14 5t12 5.5t11 8.5t8.5 8t8.5 10.5t7 10t7.5 11t6.5 10.5h-22q-10 -18 -15.5 -25t-16.5 -15.5t-27 -11.5q-30 -6 -86 30q-59 38 -104 21q-19 -7 -34 -23.5t-21 -29.5l-6 -14h21zM35 227q0 103 62 170.5t184 67.5 t184 -67.5t62 -170.5q0 -102 -62 -168.5t-184 -66.5t-184 66.5t-62 168.5zM177 210q21 -120 55.5 -165.5t87.5 -36.5t69 59.5t-3 176.5q-22 121 -56.5 167.5t-87.5 37.5t-69 -61t4 -178z" />
<glyph unicode="&#xf6;" horiz-adv-x="562" d="M98 593q0 29 20 48t49 19q28 0 48 -19t20 -48q0 -28 -20 -47t-48 -19q-29 0 -49 19t-20 47zM308 593q0 29 20 48t49 19q28 0 48 -19t20 -48q0 -28 -20 -47t-48 -19q-29 0 -49 19t-20 47zM35 227q0 103 62 170.5t184 67.5t184 -67.5t62 -170.5q0 -102 -62 -168.5 t-184 -66.5t-184 66.5t-62 168.5zM177 210q21 -120 55.5 -165.5t87.5 -36.5t69 59.5t-3 176.5q-22 121 -56.5 167.5t-87.5 37.5t-69 -61t4 -178z" />
<glyph unicode="&#xf7;" horiz-adv-x="558" d="M223 475q0 23 16.5 39t38.5 16q23 0 39 -16t16 -39t-16 -39t-39 -16t-39 16t-16 39zM50 292v18h458v-18h-458zM223 127q0 23 16.5 39t38.5 16q23 0 39 -16t16 -39t-16 -39t-39 -16t-39 16t-16 39z" />
<glyph unicode="&#xf8;" horiz-adv-x="562" d="M444 416q83 -64 83 -189q0 -102 -62 -168.5t-184 -66.5q-95 0 -156 43l-29 -35h-24l38 46q-75 63 -75 181q0 103 62 170.5t184 67.5q89 0 148 -38l24 28h24zM177 210q6 -35 14 -67l170 202q-40 118 -119 104q-53 -9 -69 -61t4 -178zM320 8q53 9 69 59.5t-3 176.5 q-8 43 -18 80l-171 -203q21 -68 51 -94t72 -19z" />
<glyph unicode="&#xf9;" horiz-adv-x="629" d="M384 537l-12 -15l-187 142l11 16zM528 124q0 -24 7 -41.5t16.5 -25t19 -12t16.5 -4.5h7v-7l-165 -44l-26 93q-53 -93 -169 -93q-59 0 -96 33.5t-37 87.5v205q0 34 -16.5 54.5t-32.5 24.5l-17 4v7q108 10 184 49h8v-333q0 -36 17.5 -59t49.5 -23q70 0 109 63v213 q0 34 -16.5 54.5t-32.5 24.5l-17 4v7q108 12 184 49h7v-331z" />
<glyph unicode="&#xfa;" horiz-adv-x="629" d="M399 664l-187 -142l-12 15l188 143zM528 124q0 -24 7 -41.5t16.5 -25t19 -12t16.5 -4.5h7v-7l-165 -44l-26 93q-53 -93 -169 -93q-59 0 -96 33.5t-37 87.5v205q0 34 -16.5 54.5t-32.5 24.5l-17 4v7q108 10 184 49h8v-333q0 -36 17.5 -59t49.5 -23q70 0 109 63v213 q0 34 -16.5 54.5t-32.5 24.5l-17 4v7q108 12 184 49h7v-331z" />
<glyph unicode="&#xfb;" horiz-adv-x="629" d="M446 530l-142 99l-143 -99v22l143 98l142 -98v-22zM528 124q0 -24 7 -41.5t16.5 -25t19 -12t16.5 -4.5h7v-7l-165 -44l-26 93q-53 -93 -169 -93q-59 0 -96 33.5t-37 87.5v205q0 34 -16.5 54.5t-32.5 24.5l-17 4v7q108 10 184 49h8v-333q0 -36 17.5 -59t49.5 -23 q70 0 109 63v213q0 34 -16.5 54.5t-32.5 24.5l-17 4v7q108 12 184 49h7v-331z" />
<glyph unicode="&#xfc;" horiz-adv-x="629" d="M207 527q-29 0 -49 19t-20 47q0 29 20 48t49 19q28 0 48 -19t20 -48q0 -28 -20 -47t-48 -19zM417 527q-29 0 -49 19t-20 47q0 29 20 48t49 19q28 0 48 -19t20 -48q0 -28 -20 -47t-48 -19zM528 124q0 -24 7 -41.5t16.5 -25t19 -12t16.5 -4.5h7v-7l-165 -44l-26 93 q-53 -93 -169 -93q-59 0 -96 33.5t-37 87.5v205q0 34 -16.5 54.5t-32.5 24.5l-17 4v7q108 10 184 49h8v-333q0 -36 17.5 -59t49.5 -23q70 0 109 63v213q0 34 -16.5 54.5t-32.5 24.5l-17 4v7q108 12 184 49h7v-331z" />
<glyph unicode="&#xfd;" horiz-adv-x="588" d="M409 664l-187 -142l-12 15l188 143zM553 455v-7q-5 -1 -13 -4t-29.5 -24t-37.5 -55v1l-191 -389q-23 -46 -41 -85q-17 -40 -8.5 -62t40.5 -26q58 -8 75 36.5t-20 95.5l91 42q28 -56 21 -93.5t-40 -59t-68 -29.5t-62 -5q-41 4 -52 35t10 72l39 79l12 24l-175 378 q-15 28 -32 45t-27 20l-10 4v7h243v-7q-2 0 -5 -1t-11 -5.5t-11.5 -11.5t-6.5 -20.5t5 -32.5l100 -233l109 224q13 35 2.5 53t-30.5 23l-19 4v7h142z" />
<glyph unicode="&#xfe;" horiz-adv-x="618" d="M383 465q83 0 141.5 -72.5t58.5 -160.5q0 -110 -64.5 -175.5t-180.5 -65.5q-72 0 -112 52v-163q0 -34 16.5 -54.5t33.5 -24.5l16 -4v-7h-257v7q3 0 7.5 1t15.5 6.5t20 13.5t16 24.5t7 37.5v711q0 34 -16.5 54.5t-32.5 24.5l-17 4v7q113 6 184 49h7v-366q33 48 69.5 74.5 t87.5 26.5zM338 5q64 0 89.5 52t25.5 149q0 205 -111 205q-66 0 -116 -64v-248q0 -43 33.5 -68.5t78.5 -25.5z" />
<glyph unicode="&#xff;" horiz-adv-x="588" d="M202 527q-29 0 -49 19t-20 47q0 29 20 48t49 19q28 0 48 -19t20 -48q0 -28 -20 -47t-48 -19zM412 527q-29 0 -49 19t-20 47q0 29 20 48t49 19q28 0 48 -19t20 -48q0 -28 -20 -47t-48 -19zM553 455v-7q-5 -1 -13 -4t-29.5 -24t-37.5 -55v1l-191 -389q-23 -46 -41 -85 q-17 -40 -8.5 -62t40.5 -26q58 -8 75 36.5t-20 95.5l91 42q28 -56 21 -93.5t-40 -59t-68 -29.5t-62 -5q-41 4 -52 35t10 72l39 79l12 24l-175 378q-15 28 -32 45t-27 20l-10 4v7h243v-7q-2 0 -5 -1t-11 -5.5t-11.5 -11.5t-6.5 -20.5t5 -32.5l100 -233l109 224q13 35 2.5 53 t-30.5 23l-19 4v7h142z" />
<glyph unicode="&#x13f;" horiz-adv-x="627" d="M585 261h7l-40 -261h-517v7q3 0 7.5 1t15.5 6.5t20 13.5t16 24.5t7 37.5v500q0 34 -16.5 54.5t-32.5 24.5l-17 4v7h282v-7q-3 0 -7.5 -1t-15.5 -6.5t-20 -13.5t-16 -24.5t-7 -37.5v-500q0 -29 13.5 -47t25 -21.5t22.5 -3.5h4q65 0 121 37.5t90.5 89.5t57.5 116zM407 303 q-29 0 -49 19t-20 47q0 29 20 48t49 19q28 0 48 -19t20 -48q0 -28 -20 -47t-48 -19z" />
<glyph unicode="&#x140;" horiz-adv-x="450" d="M226 90q0 -34 16.5 -54.5t33.5 -24.5l16 -4v-7h-257v7q3 0 7.5 1t15.5 6.5t20 13.5t16 24.5t7 37.5v483q0 34 -16.5 54.5t-32.5 24.5l-17 4v7q112 18 182 67h9v-640zM347 436q28 0 48 -19t20 -48q0 -28 -20 -47t-48 -19q-29 0 -49 19t-20 47q0 29 20 48t49 19z" />
<glyph unicode="&#x152;" horiz-adv-x="1007" d="M965 261h7v-261h-499q-43 -10 -97 -10q-166 0 -253 95t-88 244q0 72 21 135.5t62 114.5t107.5 81t150.5 30q45 0 92 -10h430l29 -168h-7q-20 67 -72 108.5t-132 41.5h-194q87 -38 136.5 -117.5t57.5 -179.5h188v-18h-187v-18q0 -108 -47.5 -190.5t-139.5 -120.5h206 q95 0 154.5 72t74.5 171zM204 300q29 -163 81.5 -234t148.5 -54q97 17 122.5 104t-5.5 244q-29 166 -83 245.5t-150 62.5q-65 -12 -97 -60t-33 -125.5t16 -182.5z" />
<glyph unicode="&#x178;" horiz-adv-x="737" d="M279 733q-29 0 -49 19t-20 47q0 29 20 48t49 19q28 0 48 -19t20 -48q0 -28 -20 -47t-48 -19zM489 733q-29 0 -49 19t-20 47q0 29 20 48t49 19q28 0 48 -19t20 -48q0 -28 -20 -47t-48 -19zM702 680v-7q-7 -1 -18 -4t-39 -24t-48 -55v1l-149 -252v-249q0 -34 16.5 -54.5 t33.5 -24.5l16 -4v-7h-282v7q3 0 7.5 1t15.5 6.5t20 13.5t16 24.5t7 37.5v190l-171 311v-1q-18 34 -41 54.5t-37 24.5l-14 4v7h320v-7q-2 0 -5 -0.5t-12 -2.5t-16 -5t-16 -8.5t-12.5 -13t-5.5 -18.5t6 -25l137 -255l148 250q10 21 7 35.5t-15.5 23t-26 12.5t-24.5 6l-10 1v7 h192z" />
<glyph unicode="&#x2c6;" horiz-adv-x="385" d="M335 736l-142 99l-143 -99v22l143 98l142 -98v-22z" />
<glyph unicode="&#x2dc;" horiz-adv-x="432" d="M71 769q13 38 46 51q37 12 89 -20q63 -41 101 -32q7 2 14 5t12 5.5t11 8.5t8.5 8t8.5 10.5t7 10t7.5 11t6.5 10.5h-22q-10 -18 -15.5 -25t-16.5 -15.5t-27 -11.5q-28 -6 -86 30q-59 38 -104 21q-19 -7 -34 -23.5t-21 -30.5l-6 -13h21z" />
<glyph unicode="&#x2013;" horiz-adv-x="618" d="M50 292v18h518v-18h-518z" />
<glyph unicode="&#x2014;" horiz-adv-x="1038" d="M50 292v18h938v-18h-938z" />
<glyph unicode="&#x2018;" horiz-adv-x="316" d="M158 460q-33 0 -55.5 24t-22.5 64q0 83 42 130t84 52v-7q-28 -18 -51.5 -50.5t-24.5 -62.5q13 6 28 6q32 0 55 -23t23 -55t-23 -55t-55 -23z" />
<glyph unicode="&#x2019;" horiz-adv-x="316" d="M158 730q33 0 55.5 -24t22.5 -64q0 -83 -42 -130t-84 -52v7q28 18 51.5 50.5t24.5 62.5q-13 -6 -28 -6q-32 0 -55 23t-23 55t23 55t55 23z" />
<glyph unicode="&#x201a;" horiz-adv-x="316" d="M158 146q33 0 55.5 -24t22.5 -64q0 -83 -42 -130t-84 -52v7q28 18 51.5 50.5t24.5 62.5q-13 -6 -28 -6q-32 0 -55 23t-23 55t23 55t55 23z" />
<glyph unicode="&#x201c;" horiz-adv-x="516" d="M158 460q-33 0 -55.5 24t-22.5 64q0 83 42 130t84 52v-7q-28 -18 -51.5 -50.5t-24.5 -62.5q13 6 28 6q32 0 55 -23t23 -55t-23 -55t-55 -23zM358 460q-33 0 -55.5 24t-22.5 64q0 83 42 130t84 52v-7q-28 -18 -51.5 -50.5t-24.5 -62.5q13 6 28 6q32 0 55 -23t23 -55 t-23 -55t-55 -23z" />
<glyph unicode="&#x201d;" horiz-adv-x="516" d="M158 730q33 0 55.5 -24t22.5 -64q0 -83 -42 -130t-84 -52v7q28 18 51.5 50.5t24.5 62.5q-13 -6 -28 -6q-32 0 -55 23t-23 55t23 55t55 23zM358 730q33 0 55.5 -24t22.5 -64q0 -83 -42 -130t-84 -52v7q28 18 51.5 50.5t24.5 62.5q-13 -6 -28 -6q-32 0 -55 23t-23 55t23 55 t55 23z" />
<glyph unicode="&#x201e;" horiz-adv-x="516" d="M158 146q33 0 55.5 -24t22.5 -64q0 -83 -42 -130t-84 -52v7q28 18 51.5 50.5t24.5 62.5q-13 -6 -28 -6q-32 0 -55 23t-23 55t23 55t55 23zM358 146q33 0 55.5 -24t22.5 -64q0 -83 -42 -130t-84 -52v7q28 18 51.5 50.5t24.5 62.5q-13 -6 -28 -6q-32 0 -55 23t-23 55t23 55 t55 23z" />
<glyph unicode="&#x2022;" horiz-adv-x="498" d="M80 289q0 70 49.5 119.5t119.5 49.5t119.5 -49.5t49.5 -119.5t-49.5 -119.5t-119.5 -49.5t-119.5 49.5t-49.5 119.5z" />
<glyph unicode="&#x2026;" horiz-adv-x="936" d="M80 68q0 32 23 55t55 23t55 -23t23 -55t-23 -55t-55 -23t-55 23t-23 55zM390 68q0 32 23 55t55 23t55 -23t23 -55t-23 -55t-55 -23t-55 23t-23 55zM700 68q0 32 23 55t55 23t55 -23t23 -55t-23 -55t-55 -23t-55 23t-23 55z" />
<glyph unicode="&#x2039;" horiz-adv-x="294" d="M215 432l-114 -190l114 -190h-21l-114 190l114 190h21z" />
<glyph unicode="&#x203a;" horiz-adv-x="295" d="M101 432l114 -190l-114 -190h-21l114 190l-114 190h21z" />
<glyph unicode="&#x20ac;" horiz-adv-x="763" d="M471 53q94 0 150 44.5t80 112.5h5q-7 -35 -15 -62t-27 -58.5t-45 -51.5t-69 -34t-99 -14q-162 0 -255.5 78t-110.5 219h-50v18h49q-2 26 -2 41v11h-47v18h48q10 141 110 228t261 87q49 0 95 -14.5t70 -29t54 -21.5t47 7h8l-95 -201h-7q-2 42 -6.5 72.5t-15.5 64.5t-28 55 t-46.5 35t-69.5 14q-90 0 -148.5 -77.5t-63.5 -219.5h143v-18h-144v-11q0 -15 2 -41h142v-18h-140q14 -107 73 -170.5t147 -63.5z" />
<glyph unicode="&#x2122;" horiz-adv-x="922" d="M278 669h-24v-336q0 -20 10 -32.5t20 -14.5l9 -2v-4h-166v4q4 0 10.5 2t17.5 14.5t11 32.5v336h-24q-41 0 -67 -38.5t-36 -82.5h-4l14 138h5q8 -6 57 -6h23h152h23q49 0 57 6h5l14 -138h-4q-10 44 -36 82.5t-67 38.5zM849 333q2 -20 11.5 -32t17.5 -15l9 -2v-4h-166v4 q4 0 11 2t17.5 13t10.5 28l-39 326l-72 -249l-33 -124h-6l-145 360l-35 -310q-1 -19 8.5 -30.5t19.5 -13.5l11 -2v-4h-89v4q29 3 38 37l36 308q0 19 -10 31t-20 14l-9 2v4h129l102 -253l72 253h134v-4q-4 0 -11 -2t-17.5 -13t-10.5 -28l36 -303v3z" />
<glyph unicode="&#x2153;" horiz-adv-x="467" d="M146 383v7q6 0 14.5 1.5t22.5 10t14 21.5v198h-51v5q28 9 55 22.5t41 22.5l13 9h8v-257q0 -13 12.5 -21.5t25.5 -9.5l13 -2v-7h-168zM35 346h397v-14h-397v14zM282 162q30 -2 50.5 -23.5t20.5 -48.5q0 -42 -36.5 -67.5t-87.5 -25.5q-47 0 -77.5 27.5t-11.5 83.5l54 -23 q-16 -23 -16 -44q0 -18 16.5 -27t34.5 -9q28 0 45.5 19t17.5 52q0 68 -37 77q-9 2 -21 -4.5t-20 -6.5q-19 0 -19 13q0 6 5.5 10t13.5 3q4 0 17.5 -3.5t14.5 0.5q26 14 26 59q0 22 -1.5 34t-11.5 24t-30 12q-30 0 -40.5 -17t-10.5 -36q0 -14 7 -28.5t22 -13.5v-4 q-30 -7 -48.5 6.5t-19.5 38.5q-1 24 22 43.5t71 19.5q39 0 67 -20.5t28 -54.5q0 -50 -45 -66z" />
<glyph unicode="&#x2154;" horiz-adv-x="467" d="M337 440l-6 -55h-195v3q2 25 17.5 49.5t36 45t41 40.5t34.5 43t14 46q0 66 -46 66q-32 0 -44 -20t-12 -44q0 -57 34 -57v-4q-35 -8 -55.5 11t-20.5 49q0 27 26.5 50t74.5 23q45 0 74.5 -23t29.5 -59q0 -31 -20 -53.5t-46.5 -33.5t-59 -31.5t-50.5 -45.5h173zM35 346h397 v-14h-397v14zM282 162q30 -2 50.5 -23.5t20.5 -48.5q0 -42 -36.5 -67.5t-87.5 -25.5q-47 0 -77.5 27.5t-11.5 83.5l54 -23q-16 -23 -16 -44q0 -18 16.5 -27t34.5 -9q28 0 45.5 19t17.5 52q0 68 -37 77q-9 2 -21 -4.5t-20 -6.5q-19 0 -19 13q0 6 5.5 10t13.5 3q4 0 17.5 -3.5 t14.5 0.5q26 14 26 59q0 22 -1.5 34t-11.5 24t-30 12q-30 0 -40.5 -17t-10.5 -36q0 -14 7 -28.5t22 -13.5v-4q-30 -7 -48.5 6.5t-19.5 38.5q-1 24 22 43.5t71 19.5q39 0 67 -20.5t28 -54.5q0 -50 -45 -66z" />
<glyph unicode="&#x2155;" horiz-adv-x="467" d="M146 383v7q6 0 14.5 1.5t22.5 10t14 21.5v198h-51v5q28 9 55 22.5t41 22.5l13 9h8v-257q0 -13 12.5 -21.5t25.5 -9.5l13 -2v-7h-168zM35 346h397v-14h-397v14zM273 189q29 -13 44 -39t15 -54q0 -37 -32 -68t-87 -31q-45 0 -76 28t-12 83l55 -22q-15 -23 -15 -45 q0 -18 15 -27t34 -9q32 0 48 26.5t16 61.5q0 86 -64 86q-36 0 -71 -37h-2l27 156h3q42 -16 69 -16q17 0 36 5.5t29 10.5l10 6l-7 -61q-29 -16 -67 -16q-15 0 -75 15l-10 -70q16 20 49.5 25.5t67.5 -8.5z" />
<glyph unicode="&#x2156;" horiz-adv-x="467" d="M334 438l-6 -55h-194v3q2 25 17 49.5t35.5 45t41 40t34.5 43t14 46.5q0 65 -46 65q-31 0 -43.5 -20t-12.5 -44q0 -22 9 -38.5t26 -15.5v-6q-35 -8 -55.5 10.5t-20.5 48.5q0 27 26.5 50t74.5 23q44 0 73.5 -23t29.5 -59q0 -31 -20 -53t-46.5 -33t-59 -31.5t-50.5 -45.5 h173zM35 346h397v-14h-397v14zM273 189q29 -13 44 -39t15 -54q0 -37 -32 -68t-87 -31q-45 0 -76 28t-12 83l55 -22q-15 -23 -15 -45q0 -18 15 -27t34 -9q32 0 48 26.5t16 61.5q0 86 -64 86q-36 0 -71 -37h-2l27 156h3q42 -16 69 -16q17 0 36 5.5t29 10.5l10 6l-7 -61 q-29 -16 -67 -16q-15 0 -75 15l-10 -70q16 20 49.5 25.5t67.5 -8.5z" />
<glyph unicode="&#x2157;" horiz-adv-x="467" d="M282 542q30 -2 50.5 -23.5t20.5 -48.5q0 -42 -36.5 -67.5t-87.5 -25.5q-47 0 -77.5 27.5t-11.5 83.5l54 -23q-16 -23 -16 -44q0 -18 16.5 -27t34.5 -9q28 0 45.5 19t17.5 52q0 68 -37 77q-9 2 -21 -4.5t-20 -6.5q-19 0 -19 13q0 6 5.5 10t13.5 3q4 0 17.5 -3.5t14.5 0.5 q26 14 26 59q0 22 -1.5 34t-11.5 24t-30 12q-30 0 -40.5 -17t-10.5 -36q0 -14 7 -28.5t22 -13.5v-4q-30 -7 -48.5 6.5t-19.5 38.5q-1 24 22 43.5t71 19.5q39 0 67 -20.5t28 -54.5q0 -50 -45 -66zM35 346h397v-14h-397v14zM273 189q29 -13 44 -39t15 -54q0 -37 -32 -68 t-87 -31q-45 0 -76 28t-12 83l55 -22q-15 -23 -15 -45q0 -18 15 -27t34 -9q32 0 48 26.5t16 61.5q0 86 -64 86q-36 0 -71 -37h-2l27 156h3q42 -16 69 -16q17 0 36 5.5t29 10.5l10 6l-7 -61q-29 -16 -67 -16q-15 0 -75 15l-10 -70q16 20 49.5 25.5t67.5 -8.5z" />
<glyph unicode="&#x2158;" horiz-adv-x="467" d="M203 422v45h-130v4l163 209h32v-203h7q18 0 31 17t20 42h7l-14 -69h-51v-45q0 -14 13 -22t26 -9l13 -1v-7h-168v7q6 0 14.5 1t22.5 9t14 22zM93 477h110v141zM35 346h397v-14h-397v14zM273 189q29 -13 44 -39t15 -54q0 -37 -32 -68t-87 -31q-45 0 -76 28t-12 83l55 -22 q-15 -23 -15 -45q0 -18 15 -27t34 -9q32 0 48 26.5t16 61.5q0 86 -64 86q-36 0 -71 -37h-2l27 156h3q42 -16 69 -16q17 0 36 5.5t29 10.5l10 6l-7 -61q-29 -16 -67 -16q-15 0 -75 15l-10 -70q16 20 49.5 25.5t67.5 -8.5z" />
<glyph unicode="&#x2159;" horiz-adv-x="467" d="M146 383v7q6 0 14.5 1.5t22.5 10t14 21.5v198h-51v5q28 9 55 22.5t41 22.5l13 9h8v-257q0 -13 12.5 -21.5t25.5 -9.5l13 -2v-7h-168zM35 346h397v-14h-397v14zM257 301q39 0 67.5 -22.5t9.5 -70.5l-54 22q17 24 10 43.5t-33 19.5q-35 0 -56.5 -39t-23.5 -93q22 20 56 20 q48 0 73 -27.5t25 -64.5q0 -40 -28.5 -66t-78.5 -26q-110 0 -110 128q0 84 41.5 130t101.5 46zM211 170q-36 -9 -36 -55q0 -9 4 -35q6 -40 17.5 -57t32.5 -17q54 0 54 61q0 19 -3 29q-12 40 -28.5 60t-40.5 14z" />
<glyph unicode="&#x215a;" horiz-adv-x="467" d="M275 571q29 -13 44 -39t15 -54q0 -37 -32 -68t-87 -31q-45 0 -76 28t-12 83l55 -22q-15 -23 -15 -45q0 -18 15 -27t34 -9q32 0 48 26.5t16 61.5q0 86 -64 86q-36 0 -71 -37h-2l27 156h3q42 -16 69 -16q17 0 36 5.5t29 10.5l10 6l-7 -61q-29 -16 -67 -16q-15 0 -75 15 l-10 -70q15 20 49.5 25.5t67.5 -8.5zM35 346h397v-14h-397v14zM332 208l-54 22q17 24 10 43.5t-33 19.5q-35 0 -56.5 -39t-23.5 -93q22 20 56 20q48 0 73 -27.5t25 -64.5q0 -40 -28.5 -66t-78.5 -26q-110 0 -110 128q0 84 41.5 130t101.5 46q39 0 67.5 -22.5t9.5 -70.5z M177 80q6 -40 17.5 -57t32.5 -17q54 0 54 61q0 19 -3 29q-12 40 -28.5 60t-40.5 14q-36 -9 -36 -55q0 -9 4 -35z" />
<glyph unicode="&#x215b;" horiz-adv-x="467" d="M146 383v7q6 0 14.5 1.5t22.5 10t14 21.5v198h-51v5q28 9 55 22.5t41 22.5l13 9h8v-257q0 -13 12.5 -21.5t25.5 -9.5l13 -2v-7h-168zM35 346h397v-14h-397v14zM288 162q53 -23 53 -79q0 -38 -31.5 -62t-82.5 -24q-45 0 -71 23t-26 58q0 26 14.5 48t37.5 31q-39 18 -39 62 q0 36 26.5 59t74.5 23q37 0 60.5 -20.5t23.5 -49.5q0 -19 -12 -38.5t-28 -30.5zM244 294q-48 0 -48 -53q0 -15 8.5 -27.5t25 -22t26 -14t26.5 -11.5q22 17 22 65q0 63 -60 63zM227 3q30 0 46.5 18t16.5 44q0 39 -52 64l-51 25q-8 -4 -19 -27.5t-11 -48.5q0 -75 70 -75z" />
<glyph unicode="&#x215c;" horiz-adv-x="467" d="M279 542q30 -2 50.5 -23.5t20.5 -48.5q0 -42 -36.5 -67.5t-87.5 -25.5q-47 0 -77.5 27.5t-11.5 83.5l54 -23q-16 -23 -16 -44q0 -18 16.5 -27t34.5 -9q28 0 45.5 19t17.5 52q0 68 -37 77q-9 2 -21 -4.5t-20 -6.5q-19 0 -19 13q0 6 5.5 10t13.5 3q4 0 17.5 -3.5t14.5 0.5 q26 14 26 59q0 22 -1.5 34t-11.5 24t-30 12q-30 0 -40.5 -17t-10.5 -36q0 -14 7 -28.5t22 -13.5v-4q-30 -7 -48.5 6.5t-19.5 38.5q-1 24 22 43.5t71 19.5q39 0 67 -20.5t28 -54.5q0 -50 -45 -66zM35 346h397v-14h-397v14zM130 78q0 26 14.5 48t37.5 31q-39 18 -39 62 q0 36 26.5 59t74.5 23q37 0 60.5 -20.5t23.5 -49.5q0 -19 -12 -38.5t-28 -30.5q53 -23 53 -79q0 -38 -31.5 -62t-82.5 -24q-45 0 -71 23t-26 58zM304 231q0 63 -60 63q-48 0 -48 -53q0 -15 8.5 -27.5t25 -22t26 -14t26.5 -11.5q22 17 22 65zM157 78q0 -75 70 -75 q30 0 46.5 18t16.5 44q0 39 -52 64l-51 25q-8 -4 -19 -27.5t-11 -48.5z" />
<glyph unicode="&#x215d;" horiz-adv-x="467" d="M285 571q29 -13 44 -39t15 -54q0 -37 -32 -68t-87 -31q-45 0 -76 28t-12 83l55 -22q-15 -23 -15 -45q0 -18 15 -27t34 -9q32 0 48 26.5t16 61.5q0 86 -64 86q-36 0 -71 -37h-2l27 156h3q42 -16 69 -16q17 0 36 5.5t29 10.5l10 6l-7 -61q-29 -16 -67 -16q-15 0 -75 15 l-10 -70q16 20 50 25.5t67 -8.5zM35 346h397v-14h-397v14zM127 78q0 26 14.5 48t37.5 31q-39 18 -39 62q0 36 26.5 59t74.5 23q37 0 60.5 -20.5t23.5 -49.5q0 -19 -12 -38.5t-28 -30.5q53 -23 53 -79q0 -38 -31.5 -62t-82.5 -24q-45 0 -71 23t-26 58zM301 231q0 63 -60 63 q-48 0 -48 -53q0 -15 8.5 -27.5t25 -22t26 -14t26.5 -11.5q22 17 22 65zM154 78q0 -75 70 -75q30 0 46.5 18t16.5 44q0 39 -52 64l-51 25q-8 -4 -19 -27.5t-11 -48.5z" />
<glyph unicode="&#x215e;" horiz-adv-x="467" d="M352 680v-3q-94 -128 -102 -293l-56 -4q10 113 117 245h-156l6 55h191zM35 346h397v-14h-397v14zM137 78q0 26 14.5 48t37.5 31q-39 18 -39 62q0 36 26.5 59t74.5 23q37 0 60.5 -20.5t23.5 -49.5q0 -19 -12 -38.5t-28 -30.5q53 -23 53 -79q0 -38 -31.5 -62t-82.5 -24 q-45 0 -71 23t-26 58zM311 231q0 63 -60 63q-48 0 -48 -53q0 -15 8.5 -27.5t25 -22t26 -14t26.5 -11.5q22 17 22 65zM164 78q0 -75 70 -75q30 0 46.5 18t16.5 44q0 39 -52 64l-51 25q-8 -4 -19 -27.5t-11 -48.5z" />
<glyph unicode="&#x25fc;" horiz-adv-x="455" d="M0 455h455v-455h-455v455z" />
<glyph horiz-adv-x="864" d="M283 541h57l-71 -321h-39l-96 207l-42 -207h-57l69 321h38l96 -208zM829 271l-16 -51h-163l67 318h56l-56 -267h112zM623 379l-7 -39h-256l9 39h254z" />
</font>
</defs>
</svg>
